<?xml version="1.0" encoding="utf-8"?>
<!-- Generator: Adobe Illustrator 18.1.1, SVG Export Plug-In . SVG Version: 6.00 Build 0)  -->
<svg version="1.1" id="_x37_40546cb-34ca-4331-8221-ac3d3fc9ee67"
	 xmlns="http://www.w3.org/2000/svg" xmlns:xlink="http://www.w3.org/1999/xlink" x="0px" y="0px"
	 viewBox="506 -377.5 1120.6 862.5" enable-background="new 506 -377.5 1120.6 862.5" xml:space="preserve">
<rect x="661.6" y="-314.1" opacity="0.1" fill="#F3992B" enable-background="new    " width="14" height="58"/>
<title>co-working</title>
<path opacity="0.1" fill="#F3992B" enable-background="new    " d="M1556,110.7c-41.3,62.1-30.8,148.4-10.1,216.8
	c7,22.9,14.9,47.1,10.2,72.4c-5.8,30.9-29.2,54.8-53.2,68.1c-43.8,24.3-94.6,22.3-132.3-5.2c-32.6-23.8-54.7-64.4-88-87
	c-55.6-37.7-129.8-17.5-193.9,14.9c-45.3,22.9-95.1,52.1-138.1,33.8c-30.2-12.9-49.8-47.6-59.6-85.2c-4.7-18.1-7.8-37.8-17.8-51.8
	c-6-8.3-14-14-22.3-18.6c-75.7-42.7-175.6-11.1-248.9-59.2c-49.4-32.4-78.8-97.5-89.8-166.7c-11-69.1-5.6-142.7,1.8-215.1
	c5.2-51.4,12.7-106.4,41.4-147.7c30.3-43.6,79.6-62.2,123-56.9c43.4,5.2,81.6,31.1,114.8,62.4c41.5,39,79.4,88.5,132.1,102
	c35.9,9.3,74.6,0.6,112.4-4c63.1-7.6,125.6-3.4,187.7,1.6c59.5,4.8,119.3,10.4,175.2,30.8c39.5,14.4,70.3,43.1,107.4,62.2
	c24.2,12.5,51.1,14.6,73.7,31c27.9,20.1,52.5,56.7,42.8,101.8C1615.3,54.2,1577.9,77.7,1556,110.7z"/>
<rect x="1386.8" y="-121.1" opacity="0.1" fill="#F3992B" enable-background="new    " width="40.9" height="61.9"/>
<rect x="1390.8" y="-115.1" opacity="0.1" fill="#F3992B" enable-background="new    " width="32.9" height="49.9"/>
<rect x="1303.8" y="-164.1" opacity="0.1" fill="#F3992B" enable-background="new    " width="62.8" height="61.9"/>
<rect x="1309.9" y="-158.1" opacity="0.1" fill="#F3992B" enable-background="new    " width="50.6" height="49.9"/>
<rect x="570.6" y="-256.2" opacity="0.1" fill="#F3992B" enable-background="new    " width="192" height="5.1"/>
<rect x="570.6" y="-231.2" opacity="0.1" fill="#F3992B" enable-background="new    " width="192" height="5.1"/>
<rect x="894.4" y="75.1" fill="#D6D6E3" width="19.6" height="219.1"/>
<path fill="#AEBEE1" d="M1486.8,98.1V-104c0-11.7,9.5-21.2,21.3-21.2l0,0c11.7,0,21.2,9.5,21.2,21.2v244.6
	c0,11.7-9.5,21.3-21.3,21.3l0,0h-131.6c-11.7,0-21.3-9.5-21.3-21.3l0,0l0,0c0-11.7,9.5-21.2,21.3-21.2l0,0h89.2
	C1477.3,119.4,1486.8,109.9,1486.8,98.1z"/>
<path fill="#535461" d="M1486.8,98.1V-104c0-11.7,9.5-21.2,21.3-21.2l0,0c11.7,0,21.2,9.5,21.2,21.2v244.6
	c0,11.7-9.5,21.3-21.3,21.3l0,0h-131.6c-11.7,0-21.3-9.5-21.3-21.3l0,0l0,0c0-11.7,9.5-21.2,21.3-21.2l0,0h89.2
	C1477.3,119.4,1486.8,109.9,1486.8,98.1z"/>
<path fill="#D6D6E3" d="M1355.2,139.5c0.6-11.3,9.9-20.1,21.2-20.1h89.2c11.7,0,21.3-9.5,21.3-21.3l0,0V-104
	c0-11.3,8.9-20.7,20.2-21.2v264.7H1355.2z"/>
<path fill="#AEBEE1" d="M698.5,104.9V-97.2c0-11.7-9.5-21.2-21.2-21.3l0,0c-11.7,0-21.3,9.5-21.3,21.3v244.6
	c0,11.7,9.5,21.3,21.2,21.3c0,0,0,0,0.1,0h131.6c11.7,0,21.3-9.5,21.3-21.3l0,0c0-11.7-9.5-21.2-21.3-21.2h-89.1
	C708,126.2,698.5,116.7,698.5,104.9C698.5,105,698.5,105,698.5,104.9z"/>
<path fill="#535461" d="M698.5,104.9V-97.2c0-11.7-9.5-21.2-21.2-21.3l0,0c-11.7,0-21.3,9.5-21.3,21.3v244.6
	c0,11.7,9.5,21.3,21.2,21.3c0,0,0,0,0.1,0h131.6c11.7,0,21.3-9.5,21.3-21.3l0,0c0-11.7-9.5-21.2-21.3-21.2h-89.1
	C708,126.2,698.5,116.7,698.5,104.9C698.5,105,698.5,105,698.5,104.9z"/>
<path fill="#D6D6E3" d="M830.1,146.3c-0.6-11.3-9.9-20.1-21.2-20.1h-89.1c-11.7,0-21.3-9.5-21.3-21.2c0,0,0,0,0,0V-97.2
	c0-11.3-8.9-20.7-20.2-21.2v264.7H830.1z"/>
<rect x="1282.4" y="75.1" fill="#D6D6E3" width="19.6" height="224.3"/>
<rect x="894.4" y="75.1" opacity="0.1" enable-background="new    " width="19.6" height="16.2"/>
<rect x="1282.4" y="75.1" opacity="0.1" enable-background="new    " width="19.6" height="16.2"/>
<path opacity="0.1" enable-background="new    " d="M964.5-58.3c-0.3,3.5-0.7,7-1.2,10.5h-2.8v-10.5H964.5z"/>
<path fill="#535461" d="M1044.8,50.7c0.1,3.5-2.5,6.5-5.7,6.5h-59.9V51h49.8c2.2,0,3.5-2.6,2.4-4.7l-45.2-91.9
	c-0.7-1.3-2-2.2-3.5-2.3h-22.3v-10.5h28.2c1,0,2,0.6,2.5,1.6l51.8,100C1044.1,45.6,1044.8,48.1,1044.8,50.7z"/>
<path fill="#535461" d="M934.9,34.1l-0.8,1.4l-7.7-5.1l23.7-182.5h6.1c0,0,0.3,0.8,0.7,2.4C961-133.9,981.1-44.6,934.9,34.1z"/>
<path opacity="0.1" enable-background="new    " d="M956.9-149.7l-22,183.8l-0.8,1.4l-7.7-5.1l23.7-182.5h6.1
	C956.3-152.1,956.5-151.3,956.9-149.7z"/>
<rect x="843.3" y="-66.4" transform="matrix(-0.1189 0.9929 -0.9929 -0.1189 990.7034 -997.4888)" fill="#D6D6E3" width="189.3" height="14.5"/>
<path fill="#E3EDF9" d="M870.1,50.8c0,0.9-0.8,1.7-1.7,1.7h-2.6c-0.9,0-1.7-0.8-1.7-1.7c0-0.1,0-0.1,0-0.2c0.1-0.9,0.8-1.5,1.7-1.5
	h2.6c0.8,0,1.5,0.5,1.6,1.3C870.1,50.5,870.1,50.7,870.1,50.8z"/>
<path fill="#E3EDF9" d="M877.8,50.8c0,0.9-0.8,1.7-1.7,1.7h-2.6c-0.9,0-1.7-0.8-1.7-1.7c0-0.2,0-0.3,0.1-0.5
	c0.1-0.3,0.2-0.5,0.4-0.7c0.3-0.3,0.7-0.5,1.2-0.5h2.6c0.7,0,1.3,0.4,1.6,1C877.7,50.3,877.8,50.6,877.8,50.8z"/>
<path fill="#E3EDF9" d="M884.6,50.8c0,0.9-0.8,1.7-1.7,1.7h-2.6c-0.9,0-1.7-0.8-1.7-1.7c0-0.2,0-0.5,0.2-0.7c0.3-0.6,0.9-1,1.5-1
	h2.6C883.8,49.1,884.6,49.9,884.6,50.8C884.6,50.8,884.6,50.8,884.6,50.8L884.6,50.8z"/>
<path fill="#E3EDF9" d="M892.3,50.8c0,0.9-0.8,1.7-1.7,1.7H888c-0.9,0-1.7-0.8-1.7-1.7c0-0.4,0.1-0.7,0.3-1l0.2-0.2
	c0.3-0.3,0.7-0.5,1.2-0.5h2.6c0.5,0,0.9,0.2,1.2,0.5C892.1,50,892.3,50.4,892.3,50.8z"/>
<path opacity="0.1" enable-background="new    " d="M870.1,50.4c0,0.1,0.1,0.3,0,0.4c0,0.9-0.8,1.7-1.7,1.7h-2.6
	c-0.9,0-1.7-0.8-1.7-1.7c0-0.1,0-0.1,0-0.2L870.1,50.4z"/>
<path opacity="0.1" enable-background="new    " d="M877.7,50.1c0.1,0.2,0.1,0.4,0.1,0.7c0,0.9-0.8,1.7-1.7,1.7h-2.6
	c-0.9,0-1.7-0.8-1.7-1.7c0-0.2,0-0.3,0.1-0.5L877.7,50.1z"/>
<path opacity="0.1" enable-background="new    " d="M884.4,49.9c0.2,0.3,0.3,0.6,0.3,0.9c0,0.9-0.8,1.7-1.7,1.7h-2.6
	c-0.9,0-1.7-0.8-1.7-1.7c0-0.2,0-0.5,0.2-0.7L884.4,49.9z"/>
<path opacity="0.1" enable-background="new    " d="M892.3,50.8c0,0.9-0.8,1.7-1.7,1.7H888c-0.9,0-1.7-0.8-1.7-1.7
	c0-0.4,0.1-0.7,0.3-1l5.2-0.2C892.1,50,892.3,50.4,892.3,50.8z"/>
<path fill="#D6D6E3" d="M907.6,57.6h-49.5v-2.3c0-2.1,1.6-3.8,3.7-3.9l39.7-1.4c3.2-0.1,6,2.4,6.1,5.7c0,0.1,0,0.1,0,0.2L907.6,57.6
	z"/>
<path fill="#535461" d="M1151.6,50.7c-0.1,3.5,2.5,6.5,5.7,6.5h59.9V51h-49.9c-2.2,0-3.5-2.6-2.4-4.7l45.2-91.9
	c0.7-1.3,2-2.2,3.5-2.3h22.3v-10.5h-28.2c-1,0-2,0.6-2.4,1.6l-51.8,100C1152.3,45.6,1151.7,48.1,1151.6,50.7z"/>
<path fill="#535461" d="M1261.5,34.1l0.8,1.4l7.7-5.1l-23.7-182.5h-6.1c0,0-0.3,0.8-0.7,2.4C1235.4-133.9,1215.3-44.6,1261.5,34.1z"
	/>
<path opacity="0.1" enable-background="new    " d="M1239.5-149.7l22,183.8l0.8,1.4l7.7-5.1l-23.7-182.5h-6.1
	C1240.2-152.1,1239.9-151.3,1239.5-149.7z"/>
<rect x="1251.3" y="-153.8" transform="matrix(-0.9929 0.1189 -0.1189 -0.9929 2501.0764 -267.6505)" fill="#D6D6E3" width="14.5" height="189.3"/>
<path fill="#E3EDF9" d="M1326.3,50.8c0,0.9,0.8,1.7,1.7,1.7h2.6c0.9,0,1.7-0.8,1.7-1.7l0,0c0-0.1,0-0.1,0-0.2
	c-0.1-0.9-0.8-1.5-1.7-1.5h-2.6c-0.8,0-1.5,0.5-1.7,1.3C1326.3,50.5,1326.3,50.7,1326.3,50.8z"/>
<path fill="#E3EDF9" d="M1318.6,50.8c0,0.9,0.8,1.7,1.7,1.7h2.6c0.9,0,1.7-0.8,1.7-1.7l0,0c0-0.2,0-0.3-0.1-0.5
	c-0.1-0.3-0.2-0.5-0.4-0.7c-0.3-0.3-0.7-0.5-1.2-0.5h-2.6c-0.7,0-1.3,0.4-1.6,1C1318.6,50.3,1318.6,50.6,1318.6,50.8z"/>
<path fill="#E3EDF9" d="M1311.8,50.8c0,0.9,0.8,1.7,1.7,1.7h2.6c0.9,0,1.7-0.8,1.7-1.7l0,0c0-0.2,0-0.5-0.2-0.7
	c-0.3-0.6-0.9-1-1.5-1h-2.6C1312.6,49.1,1311.8,49.9,1311.8,50.8C1311.8,50.8,1311.8,50.8,1311.8,50.8L1311.8,50.8z"/>
<path fill="#E3EDF9" d="M1304.1,50.8c0,0.9,0.8,1.7,1.7,1.7h2.6c0.9,0,1.7-0.8,1.7-1.7c0-0.4-0.1-0.7-0.3-1l-0.2-0.2
	c-0.3-0.3-0.7-0.5-1.2-0.5h-2.6c-0.5,0-0.9,0.2-1.2,0.5C1304.3,50,1304.1,50.4,1304.1,50.8z"/>
<path opacity="0.1" enable-background="new    " d="M1326.3,50.4c0,0.1-0.1,0.3,0,0.4c0,0.9,0.8,1.7,1.7,1.7h2.6
	c0.9,0,1.7-0.8,1.7-1.7l0,0c0-0.1,0-0.1,0-0.2L1326.3,50.4z"/>
<path opacity="0.1" enable-background="new    " d="M1318.8,50.1c-0.1,0.2-0.1,0.4-0.1,0.7c0,0.9,0.8,1.7,1.7,1.7h2.6
	c0.9,0,1.7-0.8,1.7-1.7l0,0c0-0.2,0-0.3-0.1-0.5L1318.8,50.1z"/>
<path opacity="0.1" enable-background="new    " d="M1312.1,49.9c-0.2,0.3-0.3,0.6-0.3,0.9c0,0.9,0.8,1.7,1.7,1.7h2.6
	c0.9,0,1.7-0.8,1.7-1.7l0,0c0-0.2,0-0.5-0.2-0.7L1312.1,49.9z"/>
<path opacity="0.1" enable-background="new    " d="M1304.1,50.8c0,0.9,0.8,1.7,1.7,1.7h2.6c0.9,0,1.7-0.8,1.7-1.7
	c0-0.4-0.1-0.7-0.3-1l-5.2-0.2C1304.3,50,1304.1,50.4,1304.1,50.8z"/>
<path fill="#D6D6E3" d="M1288.8,57.6h49.4v-2.3c0-2.1-1.6-3.8-3.7-3.9l-39.7-1.4c-3.2-0.1-6,2.4-6.1,5.7c0,0.1,0,0.1,0,0.2
	L1288.8,57.6z"/>
<linearGradient id="SVGID_1_" gradientUnits="userSpaceOnUse" x1="1394.6608" y1="-278.0033" x2="1394.6608" y2="236.8067" gradientTransform="matrix(1 9.000000e-002 9.000000e-002 -1 -4.2432 -87.48)">
	<stop  offset="0" style="stop-color:#808080;stop-opacity:0.25"/>
	<stop  offset="0.54" style="stop-color:#808080;stop-opacity:0.12"/>
	<stop  offset="1" style="stop-color:#808080;stop-opacity:0.1"/>
</linearGradient>
<path fill="url(#SVGID_1_)" d="M1495.8,84.7c23.1-39.1,14.7-118.1,15.6-119.6c0.8-1.3-2.3-38.5-23.6-47.6
	c-3.8-7.6-7.6-16.1-7.6-16.1c-0.4,0.3-0.8,0.7-1.2,0.9c-0.2-0.5-0.3-0.9-0.5-1.4c-0.3-0.8-0.5-1.6-0.8-2.4c0.6,0.2,1.2,0.3,1.8,0.5
	c1.6,0.4,3.3,0.2,4.8-0.4c0.5-0.3,1-0.6,1.4-1.1c1.7-1.1,2.6-3.1,3.4-5l6.2-14.8c2.8-6.7,5.6-13.4,7.1-20.5
	c2.2-10.6,1.3-21.7-2.5-31.9c-1.5-3.9-3.5-7.8-6.9-10.1c-6.9-4.7-16.4-1.4-24.3-4.2c-2.6-0.9-4.9-2.4-7.5-3.3
	c-5.6-2-11.9-0.9-17.2,1.6s-9.7,6.4-14.4,10c-2.3,1.8-6,3.6-8.7,6c-2.6,2.1-4.7,4.6-4.3,7.8c0.4,3.8,4.4,6,8.1,6.9
	c0.6,0.1,1.2,0.3,1.9,0.4c-14,14.1-13.8,36.9,0.3,50.9c4.2,4.2,9.4,7.2,15,8.9c1.9,3.5,3.5,7.2,4.9,10.9c0.2,0.5,0.4,1,0.5,1.5
	c-6.1,1.7-10.8,3.1-11.8,3.9c-2.9,2.4,3.1,23.2,3.1,23.2c-1.5,1.9-3.1,4.1-4.7,6.5c-12,18.2-19.6,38.9-22.2,60.6
	c-1,7.9-2.3,16-3.9,23.7l-71.7-14.4l-0.2,1.8l-1.7-0.4l0,0l-5.4-1.3l-0.2,1.2l-0.8-0.4c-13.3-6.3-35.8-14.2-51-6
	c-16,8.6,18.6,20.1,40.8,26.2c-7.4,0.4-14.4,2.1-20,6.3c-16.1,12.1,29.5,18.4,51,20.6l0.9,0.1v0.5l7.5,0.7l1.8,0.2l0.2,2.7
	c0,0,10.7,1.8,24.9,3.9c-16.3,4.1-36.4,6.9-50.4,8.5c-14.8,1.7-27.4,12.1-31.4,26.5c-1.3,4.1-1.4,8.5-0.4,12.7
	c4.2,14.5-0.9,121.4-2.1,144.4l-26.3,15.2c0,0-41,5-13.7,14.6c2.5,0.8,5,1.5,7.5,2c-3.6,2.3-3.3,5.3,7.3,9.1
	c27.3,9.6,90.9-0.4,90.9-0.4s-1.4-11.3-3.7-20.6l0.7,0.1c0,0-6.6-24.4,3.4-36.7c9.9-12.3-1.7-106-1.7-106s17.4-7.2,69.5-7.7
	c42,10.8,62.5-27.8,62.2-47.8C1495.8,85.6,1495.8,85.1,1495.8,84.7z"/>
<path fill="#F8B9BF" d="M1340.6,24.1l-4.5,18c0,0-4-0.9-10-2.4c-20.3-5.3-63.2-17.9-46-27.2c14.8-8,36.6-0.2,49.6,5.9
	c4.7,2.2,8.3,4.2,9.9,5.2C1340.2,23.9,1340.6,24.1,1340.6,24.1z"/>
<path opacity="0.1" enable-background="new    " d="M1339.3,29.2l-3.2,13c0,0-4-0.9-10-2.4l3.6-21.3c4.7,2.2,8.3,4.2,9.9,5.2
	L1339.3,29.2z"/>
<polygon fill="#D9DFE8" points="1339.3,43.4 1326.9,40.3 1330.8,17.6 1340.7,20 "/>
<polygon opacity="0.1" enable-background="new    " points="1339.3,43.4 1333.9,42.1 1336,18.9 1340.7,20 "/>
<path fill="#F3992B" d="M1459.2-50.9c0,0-23.8-13.8-34.4,25.7s-11.6,57.7-11.6,57.7l-75.3-15.1l-2.4,27.5c0,0,80.5,26,90.7,24.1
	s43-57,43-57S1498.9-30.5,1459.2-50.9z"/>
<g opacity="0.1">
	<path d="M1340.6,24.1l-4.5,18c0,0-4-0.9-10-2.4c-20.3-5.3-63.2-17.9-46-27.2c14.8-8,36.6-0.2,49.6,5.9c4.7,2.2,8.3,4.2,9.9,5.2
		C1340.2,23.9,1340.6,24.1,1340.6,24.1z"/>
	<path opacity="0.1" enable-background="new    " d="M1339.3,29.2l-3.2,13c0,0-4-0.9-10-2.4l3.6-21.3c4.7,2.2,8.3,4.2,9.9,5.2
		L1339.3,29.2z"/>
	<polygon points="1339.3,43.4 1326.9,40.3 1330.8,17.6 1340.7,20 	"/>
	<polygon opacity="0.1" enable-background="new    " points="1339.3,43.4 1333.9,42.1 1336,18.9 1340.7,20 	"/>
	<path d="M1456.1-51.8c0,0-23.8-13.8-34.4,25.8S1410,31.7,1410,31.7l-75.3-15.1l-2.4,27.5c0,0,80.5,26,90.7,24.1s43-57,43-57
		S1495.9-31.5,1456.1-51.8z"/>
</g>
<path fill="#68739D" d="M1307.5,255.4l-30.8,17.7c0,0-39.8,4.9-13.3,14.2s88.2-0.4,88.2-0.4s-3.4-27.7-8.2-31.6
	C1338.7,251.5,1307.5,255.4,1307.5,255.4z"/>
<path fill="#71859E" d="M1427.3,56.7c0,0-15.3,8-42.5,14.9c-15.9,4-35.9,6.8-49.7,8.5c-14.4,1.6-26.5,11.7-30.5,25.6
	c-1.3,4-1.4,8.3-0.3,12.4c4.5,15.8-2.2,144.5-2.2,144.5l46.7,4.3c0,0-6.4-23.7,3.3-35.7c9.7-11.9-1.6-102.9-1.6-102.9
	s16.9-7,67.5-7.5c46.8,12,66.1-39.3,58.9-53.6C1469.6,52.9,1427.3,56.7,1427.3,56.7z"/>
<path fill="#68739D" d="M1321.9,266.2l-30.8,17.7c0,0-39.8,4.8-13.3,14.2s88.2-0.4,88.2-0.4s-3.4-27.7-8.2-31.6
	S1321.9,266.2,1321.9,266.2z"/>
<path fill="#7B8BA3" d="M1432.3,131.7c-50.6,0.5-67.5,7.5-67.5,7.5s11.3,91,1.6,102.9c-9.7,11.9-3.3,35.7-3.3,35.7l-46.7-4.3
	c0,0,0.1-1.5,0.2-4.2c1.1-22.4,6.1-126.2,2-140.3c-1-4.1-0.9-8.4,0.3-12.4c4-14,16.1-24.1,30.5-25.7c13.8-1.6,33.7-4.4,49.6-8.5
	l0.8-0.2c26.7-6.9,41.7-14.7,41.7-14.7s42.3-3.8,49.5,10.6c1,2.3,1.5,4.8,1.5,7.3C1493,104.7,1473.1,142.2,1432.3,131.7z"/>
<path fill="#F8B9BF" d="M1361.9,46.5l-1.7,18.5c0,0-4.1-0.3-10.2-0.9c-20.9-2.2-65.1-8.3-49.5-20c13.5-10.1,36.2-5.7,49.9-1.6
	c5,1.5,8.8,3,10.5,3.6C1361.5,46.4,1361.9,46.5,1361.9,46.5z"/>
<path fill="#F8B9BF" d="M1486.1-74.4c0,0-6.3,4.9-13.9,10.3c-8.4,1.9-18.1,3.5-25.2,4.5c2.5-8,1-17-1.8-24.9
	c-3.1-8.2-7.3-16-12.6-23.1l42.3-13.2c-3.3,8.4-1.8,18,1,26.3C1478.4-87.4,1481.9-80.6,1486.1-74.4z"/>
<path opacity="0.1" enable-background="new    " d="M1361.4,51.7l-1.2,13.3c0,0-4.1-0.3-10.2-0.9l0.4-21.6c5,1.5,8.8,3,10.6,3.6
	L1361.4,51.7z"/>
<polygon fill="#D9DFE8" points="1363.5,65.8 1350.8,64.6 1351.2,41.5 1361.4,42.5 "/>
<path opacity="0.1" enable-background="new    " d="M1486.1-74.4c0,0-6.3,4.9-13.9,10.3c-8.4,1.9-18.1,3.5-25.2,4.5
	c2.5-8,1-17-1.8-24.9c10.3-3,25.1-6.9,30.8-10C1478.5-87.4,1481.9-80.7,1486.1-74.4z"/>
<path fill="#D9DFE8" d="M1477.6-94c0,0,7.1,16.1,11.5,23.3s-51.8,14-51.8,14s-5.8-20.2-3-22.5S1472.9-89.3,1477.6-94z"/>
<path opacity="0.1" enable-background="new    " d="M1492.7,85.3c-2.4,4.2-5.3,8-8.8,11.3c-24.9,23.6-65.6-1-84-14.5
	c26.7-6.9,41.7-14.7,41.7-14.7s42.3-3.8,49.5,10.6C1492.2,80.3,1492.8,82.8,1492.7,85.3z"/>
<path fill="#F3992B" d="M1484.1,94.9c-28.3,26.8-77-8.7-90.1-19.2c-2.1-1.7-3.3-2.8-3.3-2.8c5.2-4.9,9.8-15.2,13.4-27.8
	c3.4-12.1,5.8-24.4,7.3-36.8c2.5-21,9.9-41.2,21.5-58.8c1.5-2.3,3-4.5,4.5-6.3c10.7-13.6,28.6-22.2,28.6-22.2
	c37.8-11.1,42.9,45.1,41.9,46.7C1506.9-30.6,1517,63.7,1484.1,94.9z"/>
<path opacity="0.1" enable-background="new    " d="M1487.8,18.2c0,0-24.3,59.4-34.1,62.8c-5.6,1.9-35.3-1.7-59.7-5.2
	c-2.1-1.7-3.3-2.8-3.3-2.8c5.2-4.9,9.8-15.2,13.4-27.8l31.4,1.5c0,0-1.8-18.1,2.9-58.8s30.2-30.6,30.2-30.6
	C1511-28.5,1487.8,18.2,1487.8,18.2z"/>
<polygon opacity="0.1" enable-background="new    " points="1363.5,65.8 1358,65.3 1356.6,42 1361.4,42.5 "/>
<path fill="#F3992B" d="M1468-45.3c0,0-25.6-10.1-30.2,30.6s-2.9,58.8-2.9,58.8l-76.7-3.7l1.7,27.6c0,0,83.5,13.7,93.2,10.3
	s34.1-62.8,34.1-62.8S1510.3-31.1,1468-45.3z"/>
<path opacity="0.1" enable-background="new    " d="M1469.7-105.5c-1.1-6.1,5.2-6,7.5-11.7l-42.3,13.2c2.9,3.9,5.6,8.1,7.8,12.5
	c2.2,0.7,4.4,1.1,6.7,1.3C1459.5-89.3,1462.7-99.2,1469.7-105.5z"/>
<circle fill="#F8B9BF" cx="1450.4" cy="-128.7" r="35"/>
<path opacity="0.1" enable-background="new    " d="M1415.9-160.3c0.4,3.6,4.3,5.9,7.8,6.7c3.6,0.8,7.4,0.9,10.6,2.8
	c5,3.1,6.3,9.9,5.7,15.8c-0.3,3.3-0.8,7.4,1.9,9.3c0.9,0.5,1.8,0.9,2.8,1c2.8,0.6,5.7,0.7,8.6,0.3c1.7-0.2,3.4-0.6,5-0.1
	c2.6,0.8,4.2,3.5,4.7,6.2s0.2,5.5,0.6,8.1c1.2,6.9,6.5,12.4,13.3,13.7c1.6,0.4,3.2,0.2,4.7-0.4c1.9-1,2.9-3.1,3.7-5.1l6-14.4
	c2.7-6.5,5.4-13,6.9-19.9c2.1-10.3,1.3-21.1-2.4-30.9c-1.4-3.8-3.4-7.5-6.7-9.8c-6.7-4.5-16-1.4-23.6-4c-2.5-0.9-4.8-2.4-7.3-3.2
	c-5.4-1.9-11.5-0.9-16.7,1.5s-9.4,6.3-14,9.8C1423.6-169.8,1415.2-166.6,1415.9-160.3z"/>
<path fill="#B96B6B" d="M1416.8-161c0.4,3.6,4.3,5.9,7.8,6.7c3.6,0.8,7.4,0.9,10.6,2.8c5,3.1,6.3,9.9,5.7,15.8
	c-0.3,3.3-0.8,7.4,1.9,9.3c0.9,0.5,1.8,0.9,2.8,1c2.8,0.6,5.7,0.7,8.6,0.3c1.7-0.2,3.4-0.6,5-0.1c2.6,0.8,4.2,3.5,4.7,6.2
	s0.2,5.5,0.6,8.1c1.2,6.9,6.5,12.4,13.3,13.7c1.6,0.4,3.2,0.2,4.7-0.4c1.9-1,2.9-3.1,3.7-5.1l6-14.4c2.7-6.5,5.4-13,6.9-19.9
	c2.1-10.3,1.3-21.1-2.4-30.9c-1.4-3.8-3.4-7.5-6.7-9.8c-6.7-4.5-16-1.4-23.6-4c-2.5-0.9-4.8-2.4-7.3-3.2c-5.4-1.9-11.5-0.9-16.7,1.5
	s-9.4,6.3-14,9.8C1424.5-170.6,1416.1-167.3,1416.8-161z"/>
<path opacity="0.1" enable-background="new    " d="M1445.8-22.9c0,0-13.3,51.9-26.6,56.7c-13.3,4.8-7.4,6.2-7.4,6.2"/>
<rect x="1431.9" y="167.1" fill="#D6D6E3" width="14.5" height="95.4"/>
<rect x="1431.9" y="167.1" opacity="0.1" enable-background="new    " width="14.5" height="7.1"/>
<path fill="#D6D6E3" d="M1402.9,166.6v2c0,2.6,2.1,4.7,4.7,4.7l0,0h63.2c2.6,0,4.7-2.1,4.7-4.7l0,0v-2c0-2.6-2.1-4.7-4.7-4.7l0,0
	h-63.2C1405,161.9,1402.9,164,1402.9,166.6L1402.9,166.6z"/>
<path opacity="0.1" enable-background="new    " d="M1404,163.6h70.4c-0.9-1.1-2.2-1.7-3.6-1.7h-63.2
	C1406.2,161.9,1404.8,162.5,1404,163.6z"/>
<path fill="#D6D6E3" d="M1385.1,257.2h108.2c3,0,5.5,2.5,5.5,5.5v0.4c0,3-2.5,5.5-5.5,5.5h-108.2c-3,0-5.5-2.5-5.5-5.5v-0.4
	C1379.6,259.7,1382,257.2,1385.1,257.2z"/>
<circle fill="#535461" cx="1492" cy="275.9" r="7.3"/>
<circle fill="#535461" cx="1386.3" cy="275.9" r="7.3"/>
<circle fill="#535461" cx="1439.2" cy="275.9" r="7.3"/>
<path fill="#D6D6E3" d="M1432.2,49.9h97c4.7,0,8.5,3.8,8.5,8.5V59c0,4.7-3.8,8.5-8.5,8.5h-97c-4.7,0-8.5-3.8-8.5-8.5v-0.6
	C1423.7,53.7,1427.5,49.9,1432.2,49.9z"/>
<path opacity="0.1" enable-background="new    " d="M1446.4,257.2c0,0-5.7,5.6-14.5,0"/>
<path opacity="0.1" enable-background="new    " d="M1537.8,58.9v1.4c0,4-3.2,7.3-7.3,7.3H1431c-4,0-7.3-3.2-7.3-7.3v-1.4H1537.8z"
	/>
<rect x="1328.4" y="75.1" fill="#D6D6E3" width="19.6" height="249.9"/>
<rect x="1328.4" y="75.1" opacity="0.1" enable-background="new    " width="19.6" height="16.2"/>
<rect x="738.9" y="173.9" fill="#D6D6E3" width="14.5" height="95.4"/>
<rect x="738.9" y="173.9" opacity="0.1" enable-background="new    " width="14.5" height="7.1"/>
<path fill="#D6D6E3" d="M782.5,173.4v2c0,2.6-2.1,4.7-4.7,4.7l0,0h-63.2c-2.6,0-4.7-2.1-4.7-4.7l0,0v-2c0-2.6,2.1-4.7,4.7-4.7h63.2
	C780.4,168.7,782.5,170.8,782.5,173.4L782.5,173.4L782.5,173.4z"/>
<path opacity="0.1" enable-background="new    " d="M781.4,170.4H711c0.9-1.1,2.2-1.7,3.6-1.7h63.2
	C779.2,168.7,780.5,169.3,781.4,170.4z"/>
<path fill="#D6D6E3" d="M692.1,264.1h108.2c3,0,5.5,2.5,5.5,5.5v0.4c0,3-2.5,5.5-5.5,5.5H692.1c-3,0-5.5-2.5-5.5-5.5v-0.4
	C686.6,266.5,689.1,264.1,692.1,264.1z"/>
<circle fill="#535461" cx="693.3" cy="282.7" r="7.3"/>
<circle fill="#535461" cx="799.1" cy="282.7" r="7.3"/>
<circle fill="#535461" cx="746.2" cy="282.7" r="7.3"/>
<path opacity="0.1" enable-background="new    " d="M738.9,264.1c0,0,5.7,5.6,14.5,0"/>
<path fill="none" stroke="#535461" stroke-width="2" stroke-miterlimit="10" d="M1109.1-23c0,0-16.3-29.6-10.3-55.3
	c2.6-10.8,1.6-22.1-2.8-32.2c-2.1-4.8-4.7-9.4-7.6-13.7"/>
<path fill="#348EED" d="M1091.9-140.6c0.8,3.9-3.7,16.7-3.7,16.7s-9.5-9.7-10.3-13.6c-1.2-3.8,1-7.8,4.8-9s7.8,1,9,4.8
	C1091.7-141.3,1091.8-140.9,1091.9-140.6L1091.9-140.6z"/>
<path fill="#348EED" d="M1108.2-121.6c-1.4,3.7-12.2,12-12.2,12s-2.7-13.3-1.3-17c1.2-3.8,5.3-5.8,9.1-4.6c3.8,1.2,5.8,5.3,4.6,9.1
	C1108.4-122,1108.3-121.8,1108.2-121.6L1108.2-121.6z"/>
<path fill="#348EED" d="M1115.8-84.8c-3.1,2.5-16.6,4.2-16.6,4.2s4.4-12.8,7.5-15.4c3.1-2.5,7.6-2.1,10.1,0.9
	C1119.4-92,1119-87.4,1115.8-84.8C1115.9-84.9,1115.8-84.8,1115.8-84.8z"/>
<path fill="#348EED" d="M1115.3-55.7c-2.6,3-15.6,6.9-15.6,6.9s2.2-13.4,4.8-16.4c2.5-3.1,7-3.5,10.1-1c3.1,2.5,3.5,7,1,10.1
	C1115.4-55.9,1115.3-55.8,1115.3-55.7L1115.3-55.7z"/>
<path fill="#348EED" d="M1081.5-105.7c3.4,2.1,17,2,17,2s-6-12.2-9.4-14.3c-3.3-2.2-7.8-1.3-10,2.1c-2.2,3.3-1.3,7.8,2.1,10
	C1081.3-105.8,1081.4-105.8,1081.5-105.7L1081.5-105.7z"/>
<path fill="#348EED" d="M1081.3-71.6c3.8,1,16.8-3.1,16.8-3.1s-9.4-9.8-13.2-10.8c-3.9-0.8-7.7,1.7-8.5,5.5
	C1075.6-76.3,1077.7-72.6,1081.3-71.6z"/>
<path fill="#348EED" d="M1085.6-38.4c3.6,1.6,17.1-0.2,17.1-0.2s-7.6-11.3-11.2-12.9c-3.6-1.6-7.9,0-9.5,3.6S1082-40,1085.6-38.4
	L1085.6-38.4z"/>
<path fill="#F3992B" d="M1091.9-140.6c0.8,3.9-3.7,16.7-3.7,16.7s-9.5-9.7-10.3-13.6c-1.2-3.8,1-7.8,4.8-9s7.8,1,9,4.8
	C1091.7-141.3,1091.8-140.9,1091.9-140.6L1091.9-140.6z"/>
<path fill="#F3992B" d="M1108.2-121.6c-1.4,3.7-12.2,12-12.2,12s-2.7-13.3-1.3-17c1.2-3.8,5.3-5.8,9.1-4.6c3.8,1.2,5.8,5.3,4.6,9.1
	C1108.4-122,1108.3-121.8,1108.2-121.6L1108.2-121.6z"/>
<path fill="#F3992B" d="M1115.8-84.8c-3.1,2.5-16.6,4.2-16.6,4.2s4.4-12.8,7.5-15.4c3.1-2.5,7.6-2.1,10.1,0.9
	C1119.4-92,1119-87.4,1115.8-84.8C1115.9-84.9,1115.8-84.8,1115.8-84.8z"/>
<path fill="#F3992B" d="M1115.3-55.7c-2.6,3-15.6,6.9-15.6,6.9s2.2-13.4,4.8-16.4c2.5-3.1,7-3.5,10.1-1c3.1,2.5,3.5,7,1,10.1
	C1115.4-55.9,1115.3-55.8,1115.3-55.7L1115.3-55.7z"/>
<path fill="#F3992B" d="M1081.5-105.7c3.4,2.1,17,2,17,2s-6-12.2-9.4-14.3c-3.3-2.2-7.8-1.3-10,2.1c-2.2,3.3-1.3,7.8,2.1,10
	C1081.3-105.8,1081.4-105.8,1081.5-105.7L1081.5-105.7z"/>
<path fill="#F3992B" d="M1081.3-71.6c3.8,1,16.8-3.1,16.8-3.1s-9.4-9.8-13.2-10.8c-3.9-0.8-7.7,1.7-8.5,5.5
	C1075.6-76.3,1077.7-72.6,1081.3-71.6z"/>
<path fill="#F3992B" d="M1085.6-38.4c3.6,1.6,17.1-0.2,17.1-0.2s-7.6-11.3-11.2-12.9c-3.6-1.6-7.9,0-9.5,3.6S1082-40,1085.6-38.4
	L1085.6-38.4z"/>
<path fill="#F3992B" d="M1102.5,59L1102.5,59c-9.5,0-17.1-7.7-17.1-17.1c0-0.4,0-0.7,0-1.1l4.8-75.9h24.6l4.8,75.9
	c0.6,9.4-6.6,17.6-16,18.2C1103.2,59,1102.9,59,1102.5,59z"/>
<rect x="589.6" y="-314.1" opacity="0.1" fill="#F3992B" enable-background="new    " width="14" height="58"/>
<rect x="607.6" y="-314.1" opacity="0.1" fill="#F3992B" enable-background="new    " width="14" height="58"/>
<rect x="625.6" y="-314.1" opacity="0.1" fill="#F3992B" enable-background="new    " width="14" height="58"/>
<rect x="643.6" y="-314.1" opacity="0.1" fill="#F3992B" enable-background="new    " width="14" height="58"/>
<rect x="679.6" y="-314.1" opacity="0.1" fill="#F3992B" enable-background="new    " width="14" height="58"/>
<rect x="697.6" y="-314.1" opacity="0.1" fill="#F3992B" enable-background="new    " width="14" height="58"/>
<rect x="589.6" y="-303.1" opacity="0.1" fill="#F3992B" enable-background="new    " width="14" height="3"/>
<rect x="589.6" y="-267.1" opacity="0.1" fill="#F3992B" enable-background="new    " width="14" height="3"/>
<rect x="607.6" y="-303.1" opacity="0.1" fill="#F3992B" enable-background="new    " width="14" height="3"/>
<rect x="607.6" y="-267.1" opacity="0.1" fill="#F3992B" enable-background="new    " width="14" height="3"/>
<rect x="625.6" y="-303.1" opacity="0.1" fill="#F3992B" enable-background="new    " width="14" height="3"/>
<rect x="625.6" y="-267.1" opacity="0.1" fill="#F3992B" enable-background="new    " width="14" height="3"/>
<rect x="643.6" y="-303.1" opacity="0.1" fill="#F3992B" enable-background="new    " width="14" height="3"/>
<rect x="643.6" y="-267.1" opacity="0.1" fill="#F3992B" enable-background="new    " width="14" height="3"/>
<rect x="661.6" y="-303.1" opacity="0.1" fill="#F3992B" enable-background="new    " width="14" height="3"/>
<rect x="661.6" y="-267.1" opacity="0.1" fill="#F3992B" enable-background="new    " width="14" height="3"/>
<rect x="679.6" y="-303.1" opacity="0.1" fill="#F3992B" enable-background="new    " width="14" height="3"/>
<rect x="679.6" y="-267.1" opacity="0.1" fill="#F3992B" enable-background="new    " width="14" height="3"/>
<rect x="697.6" y="-303.1" opacity="0.1" fill="#F3992B" enable-background="new    " width="14" height="3"/>
<rect x="697.6" y="-267.1" opacity="0.1" fill="#F3992B" enable-background="new    " width="14" height="3"/>
<rect x="723.6" y="-314.1" transform="matrix(-0.9075 0.4201 -0.4201 -0.9075 1273.8301 -850.7529)" opacity="0.1" fill="#F3992B" enable-background="new    " width="14" height="58"/>
<rect x="716.7" y="-301.6" transform="matrix(-0.9075 0.4201 -0.4201 -0.9075 1254.3298 -876.386)" opacity="0.1" fill="#F3992B" enable-background="new    " width="14" height="3"/>
<rect x="731.8" y="-268.9" transform="matrix(-0.9075 0.4201 -0.4201 -0.9075 1296.8845 -820.4263)" opacity="0.1" fill="#F3992B" enable-background="new    " width="14" height="3"/>
<linearGradient id="SVGID_2_" gradientUnits="userSpaceOnUse" x1="835.4847" y1="-223.9335" x2="835.4847" y2="287.595" gradientTransform="matrix(1 0 0 -1 -39.7 88.22)">
	<stop  offset="0" style="stop-color:#808080;stop-opacity:0.25"/>
	<stop  offset="0.54" style="stop-color:#808080;stop-opacity:0.12"/>
	<stop  offset="1" style="stop-color:#808080;stop-opacity:0.1"/>
</linearGradient>
<path fill="url(#SVGID_2_)" d="M895.1,284l-25.4-16.2c-0.1-22.8-0.5-128.8,4.3-143c1.2-4.1,1.3-8.5,0.2-12.6
	c-3.3-14.4-15.3-25.2-29.9-27.5c-13.8-2.2-33.6-5.9-49.5-10.6c14.2-1.5,24.9-2.7,24.9-2.7l0.3-2.6l9.1-0.4v-0.4l0.9,0
	c21.4-1.3,66.8-5.5,51.3-18.2c-5.3-4.3-12.2-6.4-19.5-7.1c22.3-5.1,57-14.9,41.5-24.2c-14.7-8.8-37.3-1.9-50.8,3.7l-0.8,0.4
	l-0.1-1.2l-5.4,1.1l0,0l-1.7,0.3l-0.1-1.8l-75.5,11.7c-0.6-8.6-1.6-17.3-3.1-25.8c1.7-11.3,9.5-27.7,6.8-36.5
	c-3.2-10.2-16.4-13.6-22-22.8c-1.5-2.4-2.9-4.7-4.3-6.6c-3.1-4.2-6.7-8.1-10.6-11.5c0.2-5.9,1.6-11.8,3.9-17.3
	c1.5-3.7,3.3-7.2,5.3-10.6c18.3-4.5,29.8-22.5,26.4-41c4.8,2,10.6,2.3,13.6-1.7l-1.4-0.6c0.1-0.1,0.3-0.3,0.4-0.5
	c-2.9-1.1-6-2.4-8.3-4.4c-0.6-0.6-1.1-1.4-1.5-2.1c-1.4-2.8-1.2-6.2-2.5-9c-0.6-1.3-1.5-2.4-2.6-3.4c-2.3-2.4-5.2-4-8.5-4.8
	c-3.6-1.1-7.4-1.6-10.9-3c-9.6-11.2-25-15.5-39.1-11l-1.3,0.4c1.8-8.8-3.8-17.5-12.7-19.3c-8.6-1.8-17.1,3.6-19.2,12.1
	c0.3-3.6,1.9-7.1,4.4-9.7c-0.3,0.2-0.5,0.4-0.8,0.7c-6.6,6.2-6.9,16.5-0.7,23.1c0,0,0,0,0,0l0.3,0.3c1.2,1.4,2.5,2.6,4.1,3.6
	c-5.8-2.1-10-7.2-10.8-13.4c0,0.3,0,0.7,0,1c0.5,9,8.2,15.9,17.2,15.3c0,0,0.1,0,0.1,0l0.5-0.1l-0.2,0.3
	c-9.6,14.1-8.2,32.9,3.3,45.5c0.7,1.5,1.5,2.9,2.6,4.2c0.4,0.4,0.8,0.8,1.2,1.2c2.7,2.9,6.5,4.6,10.5,4.8c0.7,0.8,1.4,1.6,2.1,2.3
	c-0.7,2.8-1.5,5.6-2.6,8.2c-2.1,5.3-4.8,10.5-7.9,15.3c-21.6,6.1-23.5,42.8-22.7,44.2c0.9,1.7-3.2,59.3,12.8,128.8
	c-0.7,19.9,10.9,52.8,52.1,44.1c51.5,2.8,68.4,10.6,68.4,10.6s-4.9,89.6,2.1,102.6c4.4,8.2,1.3,20.2-2,28.6
	c-1.2,2.1-2.2,4.3-2.9,6.6c-1,2.1-1.7,3.4-1.7,3.4h0.7c-2.6,9.2-4.5,20.2-4.5,20.2s62.4,12.7,89.9,4.4c10.7-3.2,11.1-6.2,7.6-8.7
	c2.5-0.4,5.1-0.9,7.5-1.7C935.5,290.7,895.1,284,895.1,284z"/>
<path fill="#2A4054" d="M759.3-141.3c0,19.9-16.1,36-36,36s-36-16.1-36-36c0-19.9,16.1-36,36-36S759.3-161.1,759.3-141.3z"/>
<path fill="#F8B9BF" d="M840.4,27.9l3.6,18.2c0,0,4.1-0.7,10.1-2C874.6,39.7,918,29,901.2,19c-14.5-8.6-36.6-1.8-49.8,3.7
	c-4.8,2-8.5,3.9-10.1,4.7C840.7,27.7,840.4,27.9,840.4,27.9z"/>
<path opacity="0.1" enable-background="new    " d="M841.4,33l2.6,13.1c0,0,4.1-0.7,10.1-2l-2.7-21.5c-4.8,2-8.5,3.9-10.1,4.7
	L841.4,33z"/>
<polygon fill="#D9DFE8" points="840.8,47.2 853.3,44.7 850.5,21.8 840.5,23.8 "/>
<polygon opacity="0.1" enable-background="new    " points="840.8,47.2 846.2,46.1 845.2,22.9 840.5,23.8 "/>
<path fill="#F3992B" d="M725.2-52.3c0,0,24.4-12.7,33.3,27.2s9,58.2,9,58.2l75.9-11.7l1.2,27.6c0,0-81.6,22.4-91.6,20.1
	c-10-2.3-40.5-58.9-40.5-58.9S684.6-33.7,725.2-52.3z"/>
<g opacity="0.1">
	<path d="M840.4,27.9l3.6,18.2c0,0,4.1-0.7,10.1-2C874.6,39.7,918,29,901.2,19c-14.5-8.6-36.6-1.8-49.8,3.7c-4.8,2-8.5,3.9-10.1,4.7
		C840.7,27.7,840.4,27.9,840.4,27.9z"/>
	<path opacity="0.1" enable-background="new    " d="M841.4,33l2.6,13.1c0,0,4.1-0.7,10.1-2l-2.7-21.5c-4.8,2-8.5,3.9-10.1,4.7
		L841.4,33z"/>
	<polygon points="840.8,47.2 853.3,44.7 850.5,21.8 840.5,23.8 	"/>
	<polygon opacity="0.1" enable-background="new    " points="840.8,47.2 846.2,46.1 845.2,22.9 840.5,23.8 	"/>
	<path d="M725.2-52.7c0,0,24.4-12.7,33.3,27.2s9,58.2,9,58.2L843.4,21l1.2,27.6c0,0-81.6,22.4-91.6,20.1
		c-10-2.3-40.5-58.9-40.5-58.9S684.6-34.1,725.2-52.7z"/>
</g>
<path fill="#F37291" d="M863.3,260.5l29.9,19c0,0,39.6,6.6,12.7,14.8s-88.1-4.3-88.1-4.3s4.6-27.5,9.6-31.2
	C832.3,255.1,863.3,260.5,863.3,260.5z"/>
<path fill="#96A2D0" d="M752.3,56.6c0,0,14.9,8.7,41.8,16.8c15.7,4.8,35.5,8.4,49.2,10.6c14.4,2.2,25.9,12.9,29.4,27
	c1.1,4.1,1,8.3-0.2,12.4c-5.2,15.6-4.2,144.5-4.2,144.5l-46.8,2.3c0,0,7.4-23.4-1.7-35.8s6.2-102.7,6.2-102.7s-16.6-7.7-67.1-10.4
	c-47.3,10-64.3-42.1-56.5-56.2S752.3,56.6,752.3,56.6z"/>
<g opacity="0.1">
	<path d="M863.3,260.5l29.9,19c0,0,39.6,6.6,12.7,14.8s-88.1-4.3-88.1-4.3s4.6-27.5,9.6-31.2C832.3,255.1,863.3,260.5,863.3,260.5z"
		/>
	<path d="M752.3,56.6c0,0,14.9,8.7,41.8,16.8c15.7,4.8,35.5,8.4,49.2,10.6c14.4,2.2,25.9,12.9,29.4,27c1.1,4.1,1,8.3-0.2,12.4
		c-5.2,15.6-4.2,144.5-4.2,144.5l-46.8,2.3c0,0,7.4-23.4-1.7-35.8s6.2-102.7,6.2-102.7s-16.6-7.7-67.1-10.4
		c-47.3,10-64.3-42.1-56.5-56.2S752.3,56.6,752.3,56.6z"/>
</g>
<path fill="#F37291" d="M848.4,270.6l29.9,19c0,0,39.6,6.6,12.7,14.8s-88.1-4.3-88.1-4.3s4.7-27.5,9.6-31.2S848.4,270.6,848.4,270.6
	z"/>
<path fill="#96A2D0" d="M743.9,131.3c50.5,2.7,67.1,10.4,67.1,10.4s-4.8,87.8,2,100.6c7.3,13.6-6.5,37.9-6.5,37.9l46.8-2.3
	c0,0,0-1.5,0-4.2c-0.1-22.4-0.5-126.3,4.2-140.2c1.2-4,1.3-8.3,0.2-12.4c-3.4-14.1-15-24.8-29.3-27c-13.7-2.2-33.5-5.9-49.2-10.6
	l-0.8-0.2c-26.4-8-41-16.5-41-16.5s-31.2-2.2-39,11.9c-1,1.8-5.3,5.4-5.5,8.3C691.8,106.3,702.8,140,743.9,131.3z"/>
<path fill="#F8B9BF" d="M818.1,49.3l0.9,18.6c0,0,4.1-0.1,10.3-0.5c21-1.3,65.5-5.4,50.3-17.8c-13-10.7-35.9-7.3-49.8-3.8
	c-5.1,1.3-9,2.6-10.7,3.2C818.5,49.2,818.1,49.3,818.1,49.3z"/>
<path fill="#F8B9BF" d="M699.3-77c0,0,6,5.2,13.4,10.9c8.3,2.3,18,4.3,24.9,5.6c-2.1-8.1-0.2-17,2.9-24.8c3.4-8.1,8-15.7,13.6-22.5
	l-41.7-15.1c3,8.5,1,18.1-2.2,26.3C707.5-89.6,703.8-83,699.3-77z"/>
<path opacity="0.1" enable-background="new    " d="M818.4,54.6l0.6,13.3c0,0,4.1-0.1,10.3-0.5l0.6-21.6c-5.1,1.3-9,2.6-10.7,3.2
	L818.4,54.6z"/>
<polygon fill="#D9DFE8" points="815.6,68.5 828.4,67.9 829,44.8 818.8,45.3 "/>
<path fill="#F3992B" d="M693.8,92.3c27,28.1,77.3-5.3,90.9-15.2c2.2-1.6,3.4-2.6,3.4-2.6c-5-5.1-13-9.8-16.1-22.5
	c-2.9-13-4.9-26.2-5.9-39.5c-0.8-10.5,10.1-30.6,6.9-40.7c-3.2-10-16.1-13.3-21.6-22.4c-1.4-2.4-2.9-4.6-4.3-6.5
	c-10.1-14-27.6-23.4-27.6-23.4c-37.3-12.8-40.3,40.6-39.3,42.3S677,22.2,693.8,92.3z"/>
<path opacity="0.1" enable-background="new    " d="M693.5,15.5c0,0,21.7,60.4,31.3,64.2c5.5,2.2,35.4-0.2,59.9-2.6
	c2.2-1.6,3.4-2.6,3.4-2.6c-5-5.1-9.1-15.6-12.1-28.3l-31.5,0.1c0,0,2.5-18-0.3-58.9c-2.8-40.9-28.8-31.9-28.8-31.9
	C672.5-32.1,693.5,15.5,693.5,15.5z"/>
<polygon opacity="0.1" enable-background="new    " points="815.6,68.5 821.1,68.3 823.6,45.1 818.8,45.3 "/>
<path fill="#F3992B" d="M716.2-47.1c0,0,26-8.9,28.8,31.9c2.9,40.8,0.3,58.9,0.3,58.9l76.8-0.3l-3,27.5c0,0-84,10-93.6,6.2
	c-9.6-3.8-31.3-64.2-31.3-64.2S673.2-34.7,716.2-47.1z"/>
<path opacity="0.1" enable-background="new    " d="M717.1-107.3c1.4-6-5-6.2-7-12l41.7,15c-3.1,3.8-5.9,7.9-8.4,12.1
	c-2.2,0.6-4.5,0.9-6.8,1C726.5-90.7,723.8-100.7,717.1-107.3z"/>
<circle fill="#F8B9BF" cx="737.4" cy="-129.6" r="35"/>
<path opacity="0.1" enable-background="new    " d="M719.3-21.1c0,0,11.1,52.4,24.1,57.7s7.1,6.5,7.1,6.5"/>
<path opacity="0.1" enable-background="new    " d="M764.9,8.5c0,0-9.2,2.9-20-10.9"/>
<circle fill="#2A4054" cx="695.3" cy="-178.3" r="16"/>
<path fill="#2A4054" d="M684.1-169.8c-5.8-6.2-5.8-15.7,0-21.9c-0.3,0.2-0.5,0.4-0.8,0.6c-6.4,6.1-6.8,16.2-0.7,22.6
	c6.1,6.4,16.2,6.8,22.6,0.7l0,0c0.3-0.2,0.5-0.5,0.7-0.7C699.4-163.1,689.8-163.7,684.1-169.8z"/>
<path fill="#2A4054" d="M693.2-163.8c-8.4,0.5-15.8-5.6-16.8-14c0,0.3,0,0.7,0,1c0.6,8.8,8.2,15.5,17,15c8.8-0.6,15.5-8.2,15-17
	c0-0.3-0.1-0.7-0.1-1C708.2-171.3,701.6-164.3,693.2-163.8z"/>
<path opacity="0.1" enable-background="new    " d="M750.3-164.4c3.7,1.8,8,2.4,12,3.5s8.1,3.3,9.8,7.1c1.3,2.8,1.1,6.1,2.5,8.8
	c1.9,4,6.4,5.8,10.5,7.4c-3.5,4.8-11.1,3.5-16.1,0.2c-5-3.2-9.2-8-15-9.3c-5.8-1.2-11.8,1.5-14.8,6.6c-1.6,2.8-2.1,6-2.9,9.1
	c-2,8.1-6,16.2-13,20.8s-17.4,4.6-22.9-1.7c-3.2-3.7-4.3-8.7-5.2-13.5c-0.5-2.2-0.8-4.5-0.8-6.8c0.3-5.7,4.1-10.6,8-14.9
	c4.5-5,9.4-9.8,14.2-14.6c4.2-4.1,9-11.1,15.3-11.6C739.2-173.7,744.3-167.3,750.3-164.4z"/>
<path fill="#2A4054" d="M749.3-165.4c3.7,1.8,8,2.4,12,3.5s8.1,3.3,9.8,7.1c1.3,2.8,1.1,6.1,2.5,8.8c1.9,4,6.4,5.8,10.5,7.4
	c-3.5,4.8-11.1,3.5-16.1,0.2c-5-3.2-9.2-8-15-9.3c-5.8-1.2-11.8,1.5-14.8,6.6c-1.6,2.8-2.1,6-2.9,9.1c-2,8.1-6,16.2-13,20.8
	s-17.4,4.6-22.9-1.7c-3.2-3.7-4.3-8.7-5.2-13.5c-0.5-2.2-0.8-4.5-0.8-6.8c0.3-5.7,4.1-10.6,8-14.9c4.5-5,9.4-9.8,14.2-14.6
	c4.2-4.1,9-11.1,15.3-11.6C738.2-174.7,743.3-168.3,749.3-165.4z"/>
<path fill="#D6D6E3" d="M656.1,56.7h97c4.7,0,8.5,3.8,8.5,8.5v0.6c0,4.7-3.8,8.5-8.5,8.5h-97c-4.7,0-8.5-3.8-8.5-8.5v-0.6
	C647.6,60.5,651.4,56.7,656.1,56.7z"/>
<path opacity="0.1" enable-background="new    " d="M647.6,65.7v1.4c0,4,3.2,7.3,7.3,7.3h99.5c4,0,7.3-3.2,7.3-7.3v-1.4H647.6z"/>
<rect x="848.4" y="75.1" fill="#D6D6E3" width="19.6" height="249.8"/>
<rect x="848.4" y="75.1" opacity="0.1" enable-background="new    " width="19.6" height="16.2"/>
<rect x="839" y="57.2" fill="#D6D6E3" width="518.4" height="32.4"/>
</svg>
