<?xml version="1.0" encoding="utf-8"?>
<!-- Generator: Adobe Illustrator 18.1.1, SVG Export Plug-In . SVG Version: 6.00 Build 0)  -->
<svg version="1.1" id="_x32_6c346b9-da0c-4941-90c9-e7f7f9ba5ac3"
	 xmlns="http://www.w3.org/2000/svg" xmlns:xlink="http://www.w3.org/1999/xlink" x="0px" y="0px" viewBox="425 -304.8 959 717.8"
	 enable-background="new 425 -304.8 959 717.8" xml:space="preserve">
<title>drone_delivery</title>
<polygon opacity="0.25" fill="#F3992B" enable-background="new    " points="1335,-27.3 1335,-91.3 1297,-91.3 1297,-27.3 
	1252,-27.3 1252,-126.3 1219,-126.3 1219,-200.3 1192,-200.3 1192,-276.3 1136,-276.3 1136,-200.3 1109,-200.3 1109,-126.3 
	1077,-126.3 1077,-215.3 1059,-215.3 1059,-260.3 1048,-260.3 1048,-215.3 984,-215.3 984,68.7 935,68.7 935,38.7 905,38.7 
	905,68.7 856,68.7 856,-27.3 768,-27.3 768,-91.3 730,-91.3 730,-27.3 728,-27.3 728,95.7 688,95.7 688,23.7 640,23.7 640,95.7 
	600,95.7 600,-126.3 569,-126.3 569,-200.3 455,-200.3 455,-126.3 425,-126.3 425,264.8 600,264.8 728,264.8 856,264.8 984,264.8 
	1077,264.8 1252,264.8 1380,264.8 1380,-27.3 "/>
<rect x="444" y="-103.3" opacity="0.4" fill="#FFFFFF" enable-background="new    " width="42" height="24"/>
<rect x="538" y="-103.3" opacity="0.4" fill="#FFFFFF" enable-background="new    " width="42" height="24"/>
<rect x="444" y="-56.3" opacity="0.4" fill="#FFFFFF" enable-background="new    " width="42" height="24"/>
<rect x="538" y="-56.3" opacity="0.4" fill="#FFFFFF" enable-background="new    " width="42" height="24"/>
<rect x="444" y="-9.3" opacity="0.4" fill="#FFFFFF" enable-background="new    " width="42" height="24"/>
<rect x="538" y="-9.3" opacity="0.4" fill="#FFFFFF" enable-background="new    " width="42" height="24"/>
<rect x="444" y="37.7" opacity="0.4" fill="#FFFFFF" enable-background="new    " width="42" height="24"/>
<rect x="538" y="37.7" opacity="0.4" fill="#FFFFFF" enable-background="new    " width="42" height="24"/>
<rect x="444" y="84.7" opacity="0.4" fill="#FFFFFF" enable-background="new    " width="42" height="24"/>
<rect x="538" y="84.7" opacity="0.4" fill="#FFFFFF" enable-background="new    " width="42" height="24"/>
<rect x="444" y="131.7" opacity="0.4" fill="#FFFFFF" enable-background="new    " width="42" height="24"/>
<rect x="538" y="131.7" opacity="0.4" fill="#FFFFFF" enable-background="new    " width="42" height="24"/>
<rect x="444" y="178.7" opacity="0.4" fill="#FFFFFF" enable-background="new    " width="42" height="24"/>
<rect x="538" y="178.8" opacity="0.4" fill="#FFFFFF" enable-background="new    " width="42" height="24"/>
<rect x="615" y="119.7" opacity="0.4" fill="#FFFFFF" enable-background="new    " width="98" height="12"/>
<rect x="615" y="137.7" opacity="0.4" fill="#FFFFFF" enable-background="new    " width="98" height="12"/>
<rect x="615" y="155.7" opacity="0.4" fill="#FFFFFF" enable-background="new    " width="98" height="12"/>
<rect x="871" y="125.7" opacity="0.4" fill="#FFFFFF" enable-background="new    " width="98" height="12"/>
<rect x="871" y="143.7" opacity="0.4" fill="#FFFFFF" enable-background="new    " width="98" height="12"/>
<rect x="871" y="161.7" opacity="0.4" fill="#FFFFFF" enable-background="new    " width="98" height="12"/>
<rect x="615" y="173.7" opacity="0.4" fill="#FFFFFF" enable-background="new    " width="98" height="12"/>
<rect x="615" y="191.7" opacity="0.4" fill="#FFFFFF" enable-background="new    " width="98" height="12"/>
<rect x="615" y="209.8" opacity="0.4" fill="#FFFFFF" enable-background="new    " width="98" height="12"/>
<rect x="749" y="-4.3" opacity="0.4" fill="#FFFFFF" enable-background="new    " width="27" height="35"/>
<rect x="808" y="-4.3" opacity="0.4" fill="#FFFFFF" enable-background="new    " width="27" height="35"/>
<rect x="749" y="51.7" opacity="0.4" fill="#FFFFFF" enable-background="new    " width="27" height="35"/>
<rect x="808" y="51.7" opacity="0.4" fill="#FFFFFF" enable-background="new    " width="27" height="35"/>
<rect x="749" y="107.7" opacity="0.4" fill="#FFFFFF" enable-background="new    " width="27" height="35"/>
<rect x="808" y="107.7" opacity="0.4" fill="#FFFFFF" enable-background="new    " width="27" height="35"/>
<rect x="749" y="163.7" opacity="0.4" fill="#FFFFFF" enable-background="new    " width="27" height="35"/>
<rect x="808" y="163.8" opacity="0.4" fill="#FFFFFF" enable-background="new    " width="27" height="35"/>
<rect x="984" y="-192.3" opacity="0.4" fill="#FFFFFF" enable-background="new    " width="36" height="46"/>
<rect x="984" y="-126.3" opacity="0.4" fill="#FFFFFF" enable-background="new    " width="36" height="46"/>
<rect x="984" y="-60.3" opacity="0.4" fill="#FFFFFF" enable-background="new    " width="36" height="46"/>
<rect x="984" y="5.7" opacity="0.4" fill="#FFFFFF" enable-background="new    " width="36" height="46"/>
<rect x="984" y="71.7" opacity="0.4" fill="#FFFFFF" enable-background="new    " width="36" height="46"/>
<rect x="984" y="137.7" opacity="0.4" fill="#FFFFFF" enable-background="new    " width="36" height="46"/>
<rect x="1097.5" y="-98.3" opacity="0.4" fill="#FFFFFF" enable-background="new    " width="134" height="39"/>
<rect x="1098" y="-14.3" opacity="0.4" fill="#FFFFFF" enable-background="new    " width="134" height="39"/>
<rect x="1098.5" y="69.7" opacity="0.4" fill="#FFFFFF" enable-background="new    " width="134" height="39"/>
<rect x="1099" y="153.7" opacity="0.4" fill="#FFFFFF" enable-background="new    " width="134" height="39"/>
<rect x="455" y="-179.3" opacity="0.4" fill="#FFFFFF" enable-background="new    " width="18" height="38"/>
<rect x="1335" y="-4.3" opacity="0.4" fill="#FFFFFF" enable-background="new    " width="45" height="58"/>
<rect x="1335" y="79.7" opacity="0.4" fill="#FFFFFF" enable-background="new    " width="45" height="58"/>
<rect x="1335" y="163.7" opacity="0.4" fill="#FFFFFF" enable-background="new    " width="45" height="58"/>
<path opacity="0.1" fill="#252223" enable-background="new    " d="M689.7-228.6h-6.9c2.7,0.1,4.9-1.9,5-4.6c0.1-2.7-1.9-4.9-4.6-5
	c-0.1,0-0.3,0-0.4,0h-55.7c-2.7,0.1-4.7,2.4-4.6,5c0.1,2.5,2.1,4.5,4.6,4.6h6.9c-2.7-0.1-4.9,1.9-5,4.6c-0.1,2.7,1.9,4.9,4.6,5
	c0.1,0,0.3,0,0.4,0h-9.6c-2.7,0.1-4.7,2.4-4.6,5c0.1,2.5,2.1,4.5,4.6,4.6H680c2.7-0.1,4.7-2.4,4.6-5c-0.1-2.5-2.1-4.5-4.6-4.6h9.6
	c2.7,0.1,4.9-1.9,5-4.6c0.1-2.7-1.9-4.9-4.6-5C690-228.6,689.8-228.6,689.7-228.6z"/>
<path opacity="0.1" fill="#252223" enable-background="new    " d="M935.7-107.6h-6.9c2.7,0.1,4.9-1.9,5-4.6c0.1-2.7-1.9-4.9-4.6-5
	c-0.1,0-0.3,0-0.4,0h-55.7c-2.7,0.1-4.7,2.4-4.6,5c0.1,2.5,2.1,4.5,4.6,4.6h6.9c-2.7-0.1-4.9,1.9-5,4.6c-0.1,2.7,1.9,4.9,4.6,5
	c0.1,0,0.3,0,0.4,0h-9.6c-2.7-0.1-4.9,1.9-5,4.6c-0.1,2.7,1.9,4.9,4.6,5c0.1,0,0.3,0,0.4,0H926c2.7,0.1,4.9-1.9,5-4.6
	c0.1-2.7-1.9-4.9-4.6-5c-0.1,0-0.3,0-0.4,0h9.6c2.7,0.1,4.9-1.9,5-4.6c0.1-2.7-1.9-4.9-4.6-5C936-107.6,935.8-107.6,935.7-107.6z"/>
<path opacity="0.1" fill="#252223" enable-background="new    " d="M1354.7-265.6h-6.9c2.7,0.1,4.9-1.9,5-4.6c0.1-2.7-1.9-4.9-4.6-5
	c-0.1,0-0.3,0-0.4,0h-55.7c-2.7,0.1-4.7,2.4-4.6,5c0.1,2.5,2.1,4.5,4.6,4.6h6.9c-2.7-0.1-4.9,1.9-5,4.6c-0.1,2.7,1.9,4.9,4.6,5
	c0.1,0,0.3,0,0.4,0h-9.6c-2.7-0.1-4.9,1.9-5,4.6c-0.1,2.7,1.9,4.9,4.6,5c0.1,0,0.3,0,0.4,0h55.7c2.7,0.1,4.9-1.9,5-4.6
	s-1.9-4.9-4.6-5c-0.1,0-0.3,0-0.4,0h9.6c2.7,0.1,4.9-1.9,5-4.6s-1.9-4.9-4.6-5C1355-265.6,1354.8-265.6,1354.7-265.6L1354.7-265.6z"
	/>
<linearGradient id="SVGID_1_" gradientUnits="userSpaceOnUse" x1="1193.3699" y1="186.6289" x2="1193.37" y2="322.1" gradientTransform="matrix(1 0 0 -1 -120.51 17.3299)">
	<stop  offset="0" style="stop-color:#808080;stop-opacity:0.25"/>
	<stop  offset="0.54" style="stop-color:#808080;stop-opacity:0.12"/>
	<stop  offset="1" style="stop-color:#808080;stop-opacity:0.1"/>
</linearGradient>
<path fill="url(#SVGID_1_)" d="M1223.1-300.2c-8.4-0.1-16.9,0.4-25.2,1.5l0,0c0-3.3-2.7-6-6-6s-6.1,2.7-6.1,6l0,0
	c-8.4-1.1-16.8-1.6-25.2-1.5c-18.7,0-33.8,2-33.8,4.5c0,2.5,15.1,4.5,33.8,4.5c8.4,0.1,16.9-0.4,25.2-1.5l0,0c0,0.7,0.1,1.4,0.4,2.1
	c-1.9,1.2-2.5,3.6-1.3,5.5c0.2,0.4,0.5,0.7,0.9,1c-3,1-5.4,3.2-6.6,6.1c-1.7-1.3-3.7-2-5.8-2.1l-62.8-2.8
	c-4.6-6.2-11.9-9.9-19.7-9.9h-39.5c-7.8,0-15.2,3.7-19.8,10l-59.7,2.7c-1.9,0.1-3.8,0.7-5.4,1.8c-1.2-2.5-3.2-4.5-5.8-5.6
	c1.9-1.2,2.4-3.7,1.2-5.5c-0.5-0.8-1.3-1.4-2.2-1.7c0.2-0.6,0.3-1.1,0.3-1.7l0,0c8.4,1.1,16.8,1.6,25.2,1.5c18.7,0,33.8-2,33.8-4.5
	s-15.1-4.5-33.8-4.5c-8.4-0.1-16.9,0.4-25.2,1.5l0,0c0-3.3-2.7-6-6-6l0,0c-3.3,0-6,2.7-6,6l0,0c-8.4-1.1-16.8-1.6-25.2-1.5
	c-18.7,0-33.8,2-33.8,4.5s15.1,4.5,33.8,4.5c8.4,0.1,16.9-0.4,25.2-1.5l0,0c0,0.7,0.1,1.4,0.4,2.1c-1.9,1.2-2.5,3.6-1.3,5.5
	c0.3,0.5,0.6,0.8,1.1,1.2c-4.3,1.6-7.2,5.8-7.2,10.4v7.5c0,6.1,4.9,11.1,11.1,11.1h4.4c3.5,0,6.8-1.7,8.9-4.5
	c1.8,1.7,4.2,2.7,6.8,2.8l58.5,1.6c1.9,2.9,4.3,5.5,7.3,7.4c-5.6,5.7-27.4,30.9-23.9,75.4c0,0,3.5,6.6,12.6,0
	c0,0-5.8-49.5,26.7-69.9c1.1,3.2,4.2,5.4,7.6,5.4h4.2c-11.1,4.4-16.6,17-12.2,28.1c4.4,11.1,17,16.6,28.1,12.2
	c11.1-4.4,16.6-17,12.2-28.1c-2.2-5.6-6.6-10-12.2-12.2h4.2c3.4,0,6.5-2.2,7.6-5.4c32.5,20.4,26.7,69.9,26.7,69.9
	c9.1,6.6,12.6,0,12.6,0c4-50.9-25.2-76.6-25.2-76.6h-0.5c2.2-1.7,4-3.7,5.5-6.1l61.6-1.7c2.6-0.1,5.2-1.1,7.1-3
	c2.1,3,5.5,4.8,9.1,4.8h4.4c6.2,0,11.1-5,11.1-11.1l0,0v-7.5c0-4.4-2.6-8.4-6.6-10.2c1.9-1.1,2.6-3.5,1.6-5.4
	c-0.5-0.9-1.3-1.6-2.3-1.9c0.2-0.6,0.3-1.1,0.3-1.7l0,0c8.4,1.1,16.8,1.6,25.2,1.5c18.7,0,33.8-2,33.8-4.5
	S1241.7-300.2,1223.1-300.2z"/>
<circle fill="#F3992B" cx="1072.8" cy="-217.7" r="20.4"/>
<circle fill="#F3992B" cx="1072.8" cy="-217.7" r="13.8"/>
<circle opacity="0.2" fill="#F5F5F5" enable-background="new    " cx="1072.9" cy="-217.7" r="13.8"/>
<circle fill="#F3992B" cx="1072.8" cy="-217.7" r="9"/>
<circle opacity="0.25" enable-background="new    " cx="1073.1" cy="-217.2" r="9"/>
<path fill="#F3992B" d="M1041-248.2c0,0-27.6,24.3-23.8,72.3c0,0,3.3,6.2,11.9,0c0,0-7.1-60.9,40.4-72.3L1041-248.2z"/>
<path fill="#F3992B" d="M1104.7-248.2c0,0,27.6,24.3,23.8,72.3c0,0-3.3,6.2-11.9,0c0,0,7.1-60.9-40.4-72.3L1104.7-248.2z"/>
<path fill="#F3992B" d="M1052.5-289.5h37.3c12.8,0,23.2,10.4,23.2,23.2l0,0c0,12.8-10.4,23.2-23.2,23.2h-37.3
	c-12.8,0-23.2-10.4-23.2-23.2l0,0C1029.3-279.1,1039.7-289.5,1052.5-289.5z"/>
<path fill="#F3992B" d="M1043-253.7l-65.3-1.8c-5.3-0.1-9.5-4.5-9.5-9.8v-2.5c0-5.2,4.1-9.5,9.3-9.8l65.3-2.9
	c5.4-0.2,10,3.9,10.2,9.3c0,0.1,0,0.3,0,0.4v7.3c0,5.4-4.4,9.8-9.8,9.8C1043.2-253.7,1043.1-253.7,1043-253.7z"/>
<path fill="#F3992B" d="M1102.2-253.7l65.3-1.8c5.3-0.1,9.5-4.5,9.5-9.8v-2.5c0-5.2-4.1-9.5-9.3-9.8l-65.3-2.9
	c-5.4-0.2-10,3.9-10.2,9.3c0,0.1,0,0.3,0,0.4v7.3c0,5.4,4.4,9.8,9.8,9.8C1102-253.7,1102.1-253.7,1102.2-253.7z"/>
<path opacity="0.2" fill="#F5F5F5" enable-background="new    " d="M1043-253.5l-65.3-1.8c-5.3-0.1-9.5-4.5-9.5-9.8v-2.5
	c0-5.2,4.1-9.5,9.3-9.8l65.3-2.9c5.4-0.2,10,3.9,10.2,9.3c0,0.1,0,0.3,0,0.4v7.3c0,5.4-4.4,9.8-9.8,9.8
	C1043.2-253.5,1043.1-253.5,1043-253.5z"/>
<path opacity="0.2" fill="#F5F5F5" enable-background="new    " d="M1102.1-254.5l65.3-1.8c5.3-0.1,9.5-4.5,9.5-9.8v-2.5
	c0-5.2-4.1-9.5-9.3-9.8l-65.3-2.9c-5.4-0.2-10,3.9-10.2,9.3c0,0.1,0,0.3,0,0.4v7.3c0,5.4,4.4,9.8,9.8,9.8
	C1102-254.5,1102.1-254.5,1102.1-254.5z"/>
<path fill="#F3992B" d="M959.4-281.9h2.9c6.2,0,11.2,5,11.2,11.2v5.7c0,6.2-5,11.2-11.2,11.2h-2.9c-6.2,0-11.2-5-11.2-11.2v-5.7
	C948.3-276.9,953.3-281.9,959.4-281.9z"/>
<path fill="#F3992B" d="M1183.4-281.9h2.9c6.2,0,11.2,5,11.2,11.2v5.7c0,6.2-5,11.2-11.2,11.2h-2.9c-6.2,0-11.2-5-11.2-11.2v-5.7
	C1172.2-276.9,1177.2-281.9,1183.4-281.9z"/>
<path fill="#F3992B" d="M957.3-288.1h7.6c2.1,0,3.8,1.7,3.8,3.8v0c0,2.1-1.7,3.8-3.8,3.8h-7.6c-2.1,0-3.8-1.7-3.8-3.8v0
	C953.5-286.4,955.2-288.1,957.3-288.1z"/>
<path fill="#F3992B" d="M960.6-300.9L960.6-300.9c3.2,0,5.7,2.6,5.7,5.7v5.7c0,3.2-2.6,5.7-5.7,5.7h0c-3.2,0-5.7-2.6-5.7-5.7v-5.7
	C954.9-298.4,957.5-300.9,960.6-300.9z"/>
<ellipse fill="#F3992B" cx="931.1" cy="-292.4" rx="31.9" ry="4.3"/>
<ellipse fill="#F3992B" cx="990.1" cy="-292.4" rx="31.9" ry="4.3"/>
<path fill="#F3992B" d="M1181.7-288.1h7.6c2.1,0,3.8,1.7,3.8,3.8v0c0,2.1-1.7,3.8-3.8,3.8h-7.6c-2.1,0-3.8-1.7-3.8-3.8v0
	C1177.9-286.4,1179.6-288.1,1181.7-288.1z"/>
<path fill="#F3992B" d="M1185-300.9L1185-300.9c3.2,0,5.7,2.6,5.7,5.7v5.7c0,3.2-2.6,5.7-5.7,5.7h0c-3.2,0-5.7-2.6-5.7-5.7v-5.7
	C1179.3-298.4,1181.9-300.9,1185-300.9z"/>
<ellipse fill="#F3992B" cx="1155.6" cy="-292.4" rx="31.9" ry="4.3"/>
<ellipse fill="#F3992B" cx="1214.5" cy="-292.4" rx="31.9" ry="4.3"/>
<ellipse opacity="0.2" fill="#F5F5F5" enable-background="new    " cx="931.1" cy="-292.4" rx="31.9" ry="4.3"/>
<ellipse opacity="0.2" fill="#F5F5F5" enable-background="new    " cx="990.1" cy="-292.4" rx="31.9" ry="4.3"/>
<ellipse opacity="0.2" fill="#F5F5F5" enable-background="new    " cx="1155.6" cy="-292.4" rx="31.9" ry="4.3"/>
<ellipse opacity="0.2" fill="#F5F5F5" enable-background="new    " cx="1214.5" cy="-292.4" rx="31.9" ry="4.3"/>
<path fill="#F3992B" d="M1061.4-252h22.8c4.2,0,7.6,3.4,7.6,7.6l0,0c0,4.2-3.4,7.6-7.6,7.6h-22.8c-4.2,0-7.6-3.4-7.6-7.6l0,0
	C1053.8-248.6,1057.2-252,1061.4-252z"/>
<path opacity="0.2" fill="#F5F5F5" enable-background="new    " d="M1061.4-252h22.8c4.2,0,7.6,3.4,7.6,7.6l0,0
	c0,4.2-3.4,7.6-7.6,7.6h-22.8c-4.2,0-7.6-3.4-7.6-7.6l0,0C1053.8-248.6,1057.2-252,1061.4-252z"/>
<polygon fill="#67647E" points="1107.4,-172.9 1022.7,-172.9 1022.7,-88.2 1107.4,-88.2 1129,-88.2 1129,-172.9 "/>
<rect x="1107.4" y="-172.9" opacity="0.25" enable-background="new    " width="21.7" height="84.7"/>
<rect x="1033" y="-158.8" opacity="0.25" enable-background="new    " width="16" height="8.5"/>
<path fill="#67647E" d="M1068.9-182.9c3.6,5.1,3,11.7,3,11.7s-6.4-1.7-10-6.8s-5-10.3-3-11.7S1065.3-188,1068.9-182.9z"/>
<path fill="#67647E" d="M1075-182.9c-3.6,5.1-3,11.7-3,11.7s6.4-1.7,10-6.8s5-10.3,3-11.7S1078.6-188,1075-182.9z"/>
<linearGradient id="SVGID_2_" gradientUnits="userSpaceOnUse" x1="749.425" y1="-31.71" x2="749.425" y2="-31.37" gradientTransform="matrix(1 0 0 -1 -120.51 17.3299)">
	<stop  offset="0" style="stop-color:#808080;stop-opacity:0.25"/>
	<stop  offset="0.54" style="stop-color:#808080;stop-opacity:0.12"/>
	<stop  offset="1" style="stop-color:#808080;stop-opacity:0.1"/>
</linearGradient>
<path fill="url(#SVGID_2_)" d="M629,48.7l-0.1,0.3C628.9,48.9,628.9,48.8,629,48.7z"/>
<linearGradient id="SVGID_3_" gradientUnits="userSpaceOnUse" x1="863.2194" y1="-330.01" x2="863.2194" y2="125.2625" gradientTransform="matrix(1 0 0 -1 -120.51 17.3299)">
	<stop  offset="0" style="stop-color:#808080;stop-opacity:0.25"/>
	<stop  offset="0.54" style="stop-color:#808080;stop-opacity:0.12"/>
	<stop  offset="1" style="stop-color:#808080;stop-opacity:0.1"/>
</linearGradient>
<path fill="url(#SVGID_3_)" d="M950.9,325.3c0.1-0.1,0.1-0.2,0.2-0.3l0.1-0.2c0-0.1,0.1-0.2,0.2-0.3l0.1-0.2c0-0.1,0.1-0.2,0.1-0.3
	s0-0.1,0-0.2s0-0.2,0.1-0.3s0-0.1,0-0.2s0-0.2,0-0.3s0-0.1,0-0.2s0-0.2,0-0.3s0-0.1,0-0.2s0-0.2,0-0.3v-0.1c0-0.1,0-0.2-0.1-0.4
	v-0.1c0-0.1-0.1-0.3-0.1-0.4v-0.1c0-0.1-0.1-0.3-0.2-0.4v-0.1c-0.1-0.1-0.1-0.3-0.2-0.4l0,0l-0.2-0.4l0,0c-0.9-1.4-2.1-2.7-3.4-3.7
	c-10.3,4.3-23-0.6-23-0.6s-17-8.5-15.8-6.1c0.4,0.8,0.2,2.5-0.3,4.3c-8.1-1.7-12.6-6.1-15.1-10l9.3-10c0,0-37.6-21.2-41.8-32.2
	c-4.2-10.9-24.9-41.8-24.9-41.8s-6.7-24.3-18.8-29.7c0,0-24.2-28.9-38.3-53.7c5-12.5,12-32,10.4-40.3c-2-10.4,0.1-30,0.9-36.9
	c6.7,5.6,34,27.8,44.6,27.2c3.8-0.2,7.9-2.2,11.8-5c9.2-5.8,17.4-16.3,17.4-16.3c-1.2,0.1-2.3-1-3.1-2.9
	c10.1-11,31.1-33.6,33.4-34.1c3-0.6,19.4-29.1,10.3-35.2s-25.5,15.8-26.1,20c-0.4,2.9-13.1,15.5-21.2,23.4c0-0.2,0-0.3,0-0.3
	l-1.2,0.6c0-0.4,0-0.6,0-0.6l-21,10.5l-17.9-24.4c0,0-4.8-26.1-17-30.3C787.9-12.8,779-25.9,779-25.9c-0.1,0.4-0.2,0.9-0.3,1.3
	c-0.6-0.8-0.9-1.3-0.9-1.3s0,0.1-0.1,0.3c-0.9-3.7-1.1-7.6-0.7-11.4l0.2-0.1c0.1-0.5,0.2-0.9,0.2-1.4c12.8-7.8,18-23.7,12.3-37.6
	c3.1-2.2,7.6-3.5,11.4-5.1c5.4-2.2,10.1-5.8,13.7-10.4c-2.1-0.5-4.3-0.5-6.3,0.1c-0.3-2.8,3-6,0.5-8.1c-1.6-1.3-4.5-1.2-6.7-0.5
	c-2.2,0.7-4.3,1.7-6.6,2c-4.1,0.5-8-1.5-10.9-3.6s-5.7-4.7-9.6-5.7c-7.8-2-15.5,2.6-23.3,4.6c-12.6,3.1-20,6.5-20.6,14.5
	c-1.6,1.1-3.1,2.4-4.4,3.8c-2.7,2.3-4.6,5.5-5.3,9c-1.1,5.4,1.1,11,3.8,15.8c1.5,2.8,8.8,17.1,13.7,15.2c1.4,1.6,2.9,3,4.5,4.3
	c-0.2,1.6-0.4,3.3-0.7,5c-1.1,0.6-2.3,1-3.6,1.2c-2.7,0.5-5.5,0.7-8.2,0.7c-4.3,0-8.6-0.3-12.9-0.8c-4.2-0.5-8.4-0.7-12.5-0.7
	c-2.1,0-4.2,0.1-6.3,0.3h-0.3l-1.2,0.1h-0.2l-1.3,0.2H696l-1.1,0.2l-0.3,0l-1.1,0.3l0,0l-1.1,0.3l-0.2,0l-0.9,0.3l-0.2,0.1
	c-0.6,0.2-1.3,0.5-1.8,0.7l-0.2,0.1l-0.7,0.3l-0.1,0.1l-0.8,0.4h-0.1l-0.7,0.4l-0.2,0.1l-0.7,0.4l0,0l-0.9,0.5l-0.5,0.3l-0.2,0.1
	l-0.7,0.4c-6.1,3-64.9,18.8-75.2,50.3l0.2,0.2l0,0l0.2,0.2c-0.2,0.5-0.3,0.9-0.5,1.4c0,0,1,0.9,2.6,2.4
	c-2.8,12.1-10.2,42.9-14.1,44.3c-4.9,1.8-10.3,38.8,2.4,37.6s12.7-30.9,12.7-30.9s8.4-22.5,14.6-34c1.1,1.4,1.9,3,2.4,4.7V47v-0.1
	c0.2,0.5,0.2,1.1,0.1,1.6c0.6-1.8,3.7-9.8,10.2-8.8c6.9,1.2,33.1-24.6,35.6-27.1c-0.1,0.7-0.1,1.5-0.2,2.5l0,0l0,0
	c0,0.6-0.1,1.2-0.1,1.8v0.2v0.5V18v0.5v0.4v0.5v0.5l0,0.8v0.6v0.4v0.6v0.4v0.6v0.4v0.7v0.4l-0.1,1.1V26l-0.1,1v0.4v0.8v0.4v0.9v0.4
	l0,1V31c0,0.4,0,0.9-0.1,1.3v0.1c0,0.4,0,0.8,0,1.2V34v1v0.4c0,0.3,0,0.7,0,1v0.3c0,0.9,0,1.8-0.1,2.8v0.2c0,0.4,0,0.8,0,1.2v0.4
	c0,0.4,0,0.7,0,1.1v0.4c0,0.4,0,0.8,0,1.2v0.2c0,1,0,1.9,0,2.9c0,0.1,0,0.2,0,0.3c0,0.4,0,0.7,0,1.1c0,0.1,0,0.3,0,0.4
	c0,0.4,0,0.7,0,1.1c0,0.1,0,0.2,0,0.3c0,13.2,0.8,26.7,3.8,34.4c1.6,4.1,2.4,8.5,2.5,12.9c-0.3,8-2.4,15.8-6.1,22.9l0,0l0.7-0.2
	l-0.1,0.2l0.4-0.1c-0.6,1.3-1,1.9-1,1.9s0.9-0.3,2.5-0.7c-2.2,7.9-3.7,20.1,0.6,35.3c0,0,2.4,13.3,0.6,18.2s-3.6,43.7-3.6,43.7
	s-3.6,4.8-10.3,1.8s-88.5-13.3-88.5-13.3s-0.2,0.3-0.5,0.9c-2.5-0.8-6.1-2-8.8-3.1c1-1.4,1.9-2.2,2.6-2.1c0,0-4.4-2.1-9.1-3.8l0,0
	l-0.9-0.3l0,0l-0.8-0.3h-0.1l-0.8-0.3h-0.1L556,198h-0.2l-0.7-0.2H555l-0.7-0.2h-0.2l-0.6-0.1h-0.2l-0.5-0.1h-0.3l-0.5-0.1h-0.3
	h-0.5h-0.9H550h-0.2l-0.3,0.1h-0.2l-0.3,0.1l-0.2,0.1c-0.1,0-0.2,0.1-0.3,0.2l-0.1,0.1c-0.1,0.1-0.2,0.2-0.3,0.3
	c-3,3.6-20,73.4-12.1,78.2l0.7,0.4l0.3,0.2l0.4,0.2l0.3,0.2l0.3,0.1l0.4,0.2l0.2,0.1l0.4,0.2l0.1,0.1l0.4,0.2h0.1l0.4,0.1h0.1
	c4.4,1.2,5.9-2.9,11.2-11.6c5.2-8.5,11.9-19.3,17.8-23.3c0.1,0.3,0.3,0.6,0.4,0.9c0,0,61.3,6.7,83.7,14c22.4,7.3,40,17,54.6,0
	c13.1-15.2,26.1-64.6,28.7-74.6l0,0l0,0l0.4-1.5l0,0V182v-0.1l48.5,37l21.2,24.9c0,0,29.7,41.8,35.2,42.5s30,40.7,30,40.7l0.9-1
	c0.2,1.1,0.4,2.1,0.5,3c-2,4.8-0.2,10.6,1.7,14.4l0,0l0.1,0.2l0.2,0.4l0.1,0.2l0.2,0.4l0.1,0.2l0.2,0.4l0.1,0.2l0.2,0.3l0.1,0.2
	l0.2,0.4l0.1,0.2l0.1,0.2l0.1,0.1l0.2,0.3l0.1,0.1l0.1,0.2v0.1l0.1,0.2l0,0l0.1,0.1l0,0l0,0c0,0,63.7-15.2,71.6-20
	c0.3-0.2,0.5-0.3,0.7-0.5l0.2-0.2l0.4-0.3l0.2-0.2l0.3-0.3l0.2-0.2l0.2-0.3L950.9,325.3z"/>
<path fill="#4C4C56" d="M581,206.8c0,0-14.2-4.1-14.8-5.9c-0.6-1.8-12.4,32.5-12.4,32.5l11.8,8.3c0,0,12.4-7.1,18.9-5.9
	S581,206.8,581,206.8z"/>
<path fill="#4C4C56" d="M886.4,291.3c0,0,1.8,16,21.3,17.7s-13,16-13,16l-24.8,1.8c0,0-0.6-10-4.7-17.7S886.4,291.3,886.4,291.3z"/>
<path fill="#5F5D7E" d="M681.4,111.7c0,0-11.2,17.1-3.5,44.3c0,0,2.4,13,0.6,17.7c-1.8,4.7-3.5,42.5-3.5,42.5s-3.5,4.7-10,1.8
	c-6.5-3-86.3-13-86.3-13s-13,22.5-5.9,36c0,0,59.7,6.5,81.5,13.6c21.9,7.1,39,16.5,53.2,0c14.2-16.5,28.4-74.4,28.4-74.4l47.3,36
	l20.7,24.2c0,0,29,40.8,34.3,41.3s30.1,39.6,30.1,39.6l30.1-32.5c0,0-36.7-20.6-40.8-31.2c-4.1-10.6-24.2-40.8-24.2-40.8
	s-6.5-23.6-18.3-29c0,0-42.5-50.8-46.7-74.4c-4.1-23.6-70.9-12.4-70.9-12.4L681.4,111.7z"/>
<path fill="#986365" d="M901.2,316.1c0,0,4.1-9.5,3-11.8s15.3,5.9,15.3,5.9s12.4,4.7,22.5,0.6c0,0,8.9,6.5,1.2,11.2
	s-69.7,19.5-69.7,19.5s-9.5-13.6-1.8-21.3L901.2,316.1z"/>
<path opacity="0.1" enable-background="new    " d="M857.5,257.6c-4.1-10.6-24.2-40.8-24.2-40.8s-6.5-23.6-18.3-29
	c0,0-42.5-50.8-46.7-74.4c-0.8-4.9-4.4-8.3-9.4-10.6l-8.2,24.8l-11.3,33.8c-2.2,6.5-4.2,13.8-4,20.5c0.3-1.1,0.4-1.7,0.4-1.7
	l47.3,36l20.7,24.2c0,0,28.9,40.8,34.3,41.3s30.1,39.6,30.1,39.6l30.1-32.5C898.3,288.9,861.6,268.3,857.5,257.6z"/>
<path fill="#FDC2CC" d="M777.7-40.1c0,0-5,12.7,1.5,24.5c6.5,11.8-2.7,32.8-8.6,34c-5.9,1.2-29.5-14.2-31.3-24.2
	c-1.8-10,7.7-30.7,3-44.3L777.7-40.1z"/>
<path opacity="0.1" enable-background="new    " d="M745.8-18.2c0,0,18.3,37.2,38.4,10.6c0,0,20.1,40.8,13.6,47.3
	c-4.6,4.5-9.6,8.7-14.8,12.5l-10.6,74.4c0,0-60.3-20.7-85.7-17.1l39-93.3L745.8-18.2z"/>
<path fill="#D39999" d="M745.8-20c0,0,18.3,37.2,38.4,10.6c0,0,20.1,40.8,13.6,47.3c-4.6,4.5-9.6,8.6-14.8,12.4l-10.6,74.4
	c0,0-60.3-20.7-85.7-17.1l39-93.3L745.8-20z"/>
<path fill="#FDC2CC" d="M615.3,23.1c0,0-10,46.1-14.8,47.9c-4.8,1.8-10,37.8,2.4,36.6s12.4-30.1,12.4-30.1s13-34.9,18.3-39
	S615.3,23.1,615.3,23.1z"/>
<path fill="#FDC2CC" d="M847.4,44.4c0,0,26.6-24.8,27.2-29S891.2-10,900-4.1s-7.1,33.7-10,34.3s-37.8,39-37.8,39L847.4,44.4z"/>
<path opacity="0.1" enable-background="new    " d="M743.2-29.8c0,0-3.3,3.8-25.1,1.5c-21.9-2.4-27.2,1.8-33.1,4.7
	s-63.2,18.3-73.3,49c0,0,22.5,20.1,20.1,25.4c0,0,3-10,10-8.9s34.9-26.6,34.9-26.6s-5.3,52,1.8,70.3c7.1,18.3-3.5,36.6-3.5,36.6
	s50.2-16,72.7-8.3c0,0,13-58.5,1.8-82.1c-11.2-23.6,4.7-46.1,4.7-46.1L743.2-29.8z"/>
<path opacity="0.1" enable-background="new    " d="M743.8-31.5c0,0-3.3,3.8-25.1,1.5s-27.2,1.8-33.1,4.7s-63.2,18.3-73.3,49
	c0,0,22.5,20.1,20.1,25.4c0,0,3-10,10-8.9s34.9-26.6,34.9-26.6s-5.3,52,1.8,70.3c7.1,18.3-3.5,36.7-3.5,36.7s50.2-16,72.7-8.3
	c0,0,13-58.5,1.8-82.1c-11.2-23.6,4.8-46.1,4.8-46.1L743.8-31.5z"/>
<path fill="#EC7580" d="M743.2-31.5c0,0-3.3,3.8-25.1,1.5c-21.9-2.4-27.2,1.8-33.1,4.7s-63.2,18.3-73.3,49c0,0,22.5,20.1,20.1,25.4
	c0,0,3-10,10-8.9s34.9-26.6,34.9-26.6s-5.3,52,1.8,70.3c7.1,18.3-3.5,36.6-3.5,36.6s50.2-16,72.7-8.3c0,0,13-58.5,1.8-82.1
	c-11.2-23.6,4.8-46.1,4.8-46.1L743.2-31.5z"/>
<path opacity="0.1" enable-background="new    " d="M776.3-20.9c0,0,8.6,12.7,20.4,16.8s16.5,29.5,16.5,29.5l17.7,24.2l21.3-10.6
	c0,0,0.6,29,6.5,28.4c0,0-14.8,18.9-26.6,19.5s-44.9-27.9-44.9-27.9s-3.5,26-1.2,38.4c2.4,12.4-14.8,50.2-14.8,50.2l-23.6-4.7
	c0,0,12.4-47.3,27.8-54.9c0,0,0-31.9-2.4-39.6s15.4-36.6,13-42.5c-1.3-3.3-6.5-10.4-9.2-16.8C775.6-14.1,775.4-17.6,776.3-20.9z"/>
<path opacity="0.1" enable-background="new    " d="M778-22.1c0,0,8.6,12.7,20.4,16.8s16.5,29.5,16.5,29.5l17.7,24.2l21.3-10.6
	c0,0,0.6,29,6.5,28.4c0,0-14.8,18.9-26.6,19.5S788.9,58,788.9,58s-3.5,26-1.2,38.4c2.4,12.4-14.8,50.2-14.8,50.2l-23.6-4.7
	c0,0,12.4-47.3,27.8-54.9c0,0,0-31.9-2.4-39.6s15.4-36.6,13-42.5c-1.3-3.3-6.5-10.4-9.2-16.8C777.4-15.2,777.2-18.7,778-22.1z"/>
<path fill="#EC7580" d="M776.8-22.1c0,0,8.6,12.7,20.4,16.8s16.5,29.5,16.5,29.5l17.7,24.2l21.3-10.6c0,0,0.6,29,6.5,28.4
	c0,0-14.8,18.9-26.6,19.5S787.8,58,787.8,58s-3.5,26-1.2,38.4c2.4,12.4-14.8,50.2-14.8,50.2l-23.6-4.7c0,0,12.4-47.3,27.8-54.9
	c0,0,0-31.9-2.4-39.6s15.4-36.6,13-42.5c-1.3-3.3-6.5-10.4-9.2-16.8C776.2-15.2,776-18.7,776.8-22.1z"/>
<path opacity="5.000000e-002" enable-background="new    " d="M777.8-21.1c0,0,8.6,12.7,20.4,16.8s16.5,29.5,16.5,29.5l17.7,24.2
	l21.3-10.6c0,0,0.6,29,6.5,28.4c0,0-14.8,18.9-26.6,19.5S788.8,59,788.8,59s-3.5,26-1.2,38.4c2.4,12.4-14.8,50.2-14.8,50.2
	l-23.6-4.7c0,0,12.4-47.3,27.8-54.9c0,0,0-31.9-2.4-39.6s15.4-36.6,13-42.5c-1.3-3.3-6.5-10.4-9.2-16.8
	C777.2-14.2,777-17.7,777.8-21.1z"/>
<path fill="#986365" d="M572.1,200.9c0,0-17.1-8.3-20.1-4.7c-3,3.5-19.5,71.5-11.8,76.2s8.3,1.2,14.8-9.5
	c6.5-10.6,15.4-24.8,21.9-24.2c0,0-18.9-6.5-18.3-8.9C559.1,227.5,568,200.3,572.1,200.9z"/>
<path opacity="0.1" enable-background="new    " d="M743.3-34.9c9.6,7.3,22.6,8,32.9,1.9c0.3-2,0.8-4,1.5-5.9l-35.5-10
	C743.7-44.8,743.8-39.9,743.3-34.9z"/>
<path fill="#865A61" d="M765.3-58c7.2,0.6,16-0.7,18.6-5.6c0.8-1.4,0.9-3,1.7-4.4c2.3-4.1,8.7-5.7,13.9-8c5.2-2.1,9.8-5.6,13.3-10.1
	c-2-0.5-4.2-0.5-6.2,0.1c-0.3-2.7,2.9-5.9,0.5-7.9c-1.5-1.3-4.4-1.2-6.5-0.5s-4.1,1.7-6.4,2c-4,0.5-7.8-1.5-10.6-3.5
	s-5.5-4.5-9.4-5.5c-7.6-2-15.1,2.5-22.7,4.5c-15.6,3.9-23.2,8.1-18.9,21.7C735.7-65.3,752.2-59.1,765.3-58z"/>
<circle fill="#FDC2CC" cx="761.2" cy="-59.6" r="29.5"/>
<path opacity="0.1" enable-background="new    " d="M738.2-64.1c1.4-5.8,5.6-11.2,11.3-12.8c4.9-1.4,10.1,0.1,14.9,1.9
	c4.8,1.7,9.6,3.8,14.7,3.5s10.4-3.8,10.8-8.9c0.1-0.8,0-1.6-0.4-2.3c-0.5-0.8-1.2-1.5-2.1-2c-7.4-4.7-15.9-8.5-24.7-8.3
	c-7.3,0.1-14.2,2.8-20.9,5.5c-8.5,3.4-18.2,8.1-19.9,17.1c-1,5.3,1.1,10.7,3.7,15.4c1.5,2.7,8.8,17.1,13.6,14.8
	C741.1-41.2,737.3-60.4,738.2-64.1z"/>
<path fill="#865A61" d="M739.4-65.3c1.4-5.8,5.6-11.2,11.3-12.8c4.9-1.4,10.1,0.1,14.9,1.9c4.8,1.7,9.6,3.8,14.7,3.5
	s10.4-3.8,10.8-8.9c0.1-0.8,0-1.6-0.4-2.3c-0.5-0.8-1.2-1.5-2.1-2c-7.4-4.7-15.9-8.5-24.7-8.3c-7.3,0.1-14.2,2.8-20.9,5.5
	c-8.5,3.4-18.2,8.1-19.9,17.1c-1,5.3,1.1,10.7,3.7,15.4c1.5,2.7,8.8,17.1,13.6,14.8C742.3-42.4,738.5-61.6,739.4-65.3z"/>
<path opacity="0.5" fill="#FFFFFF" enable-background="new    " d="M542,273c-7.7-4.7,8.9-72.7,11.8-76.2c1.3-1.5,5.3-0.8,9.4,0.5
	c-4.7-1.6-9.7-2.8-11.2-1c-3,3.5-19.5,71.5-11.8,76.2c1.3,0.9,2.8,1.5,4.3,2C543.6,274,542.8,273.5,542,273z"/>
<path opacity="0.5" fill="#FFFFFF" enable-background="new    " d="M945.3,314.5c0.8,2,0.6,4.4-2.8,6.4
	c-7.7,4.7-69.7,19.5-69.7,19.5c-0.6-0.9-1.2-1.9-1.7-2.9c0.7,1.4,1.4,2.8,2.3,4c0,0,62-14.8,69.7-19.5
	C947.1,319.6,946.7,316.7,945.3,314.5z"/>
<g opacity="5.000000e-002">
	<path d="M635,43.2c-4.9-7.9-18.5-20.1-18.5-20.1c10-30.7,67.4-46.1,73.3-49c3.3-1.6,6.3-3.6,12.1-4.7c-9,0.7-12.8,3.2-16.8,5.3
		c-5.9,3-63.2,18.3-73.3,49c0,0,21.6,19.3,20.2,25.1C632.6,46.8,633.6,44.9,635,43.2z"/>
	<path d="M631.9,48.8l-0.1,0.3C631.8,49,631.9,48.9,631.9,48.8z"/>
	<path d="M743.8-30.6l-0.7-1c0,0-0.8,0.9-3.9,1.5C740.8-30.1,742.3-30.3,743.8-30.6z"/>
	<path d="M642.5,40.3c0.9-0.1,1.8-0.3,2.6-0.7C644.2,39.6,643.3,39.9,642.5,40.3z"/>
	<path d="M719.3,111c10.6-1.2,20.9-1.2,28.2,1.3c0,0,0.1-0.6,0.4-1.7C739.9,109,729.5,109.6,719.3,111z"/>
	<path d="M680.2,119c2-4,9.2-19.8,3-35.7c-7.1-18.3-1.8-70.3-1.8-70.3s-2,2-5.1,5c-1.1,12.9-3.7,50.8,2.2,65.9
		c7.1,18.3-3.5,36.6-3.5,36.6S676.9,120,680.2,119z"/>
</g>
<path opacity="0.1" fill="#252223" enable-background="new    " d="M1209.6,310.5c-7.1,3.7-14.6,6.8-21.9,10
	c-27.2,11.5-54.8,23.1-84,27c-54.8,7.4-111.4-12.6-165.3-0.2c-45.2,10.4-82.5,42.3-126.6,56.6c-20.5,6.6-41.9,9.2-63.4,9.2h-2.8
	c-2.7,0-5.3-0.1-7.9-0.2c-21.8-0.8-43.8-4-65.1-8.2c-67.6-13-136.3-36.8-188-80.7C634.8,296.4,944.7,254.3,1209.6,310.5z"/>
<path fill="#F3992B" d="M1050,138.8c0,0,19.4,19.4,8.5,48.2s18.8,76.8,18.8,76.8l-0.9-0.2c-39.9-7-59.7-52.7-37.5-86.6
	C1047,164.5,1053.8,149.7,1050,138.8z"/>
<path fill="none" stroke="#535461" stroke-miterlimit="10" d="M1050,138.8c0,0,11,23.8,0,43.2s-1.9,73.9,27.3,81.8"/>
<path fill="#FFCD97" d="M1015.4,217.4c0,0,22.2-3.5,24.2,16.3s42.6,22.6,42.6,22.6l-0.8,0.5c-33.5,22-65.6,14-60.7-15.2
	C1022.5,230.8,1022.3,219.9,1015.4,217.4z"/>
<path fill="none" stroke="#535461" stroke-miterlimit="10" d="M1015.4,217.4c0,0,17.2,3.8,15.8,19.4s25.5,34.4,51,19.5"/>
<path fill="#A8A8A8" d="M1100.1,260.1c0,0-13.9-2.8-17.7-6.5c-3.7-3.7-20.4-10.2-22.3-5.6s-25.1,20.4-9.3,23.2s37.2,3.7,41.8,1.9
	S1100.1,260.1,1100.1,260.1z"/>
<path opacity="0.2" enable-background="new    " d="M1050.8,269.5c15.8,2.8,37.2,3.7,41.8,1.9c3.5-1.4,6-8.2,7-11.4l0.5,0.1
	c0,0-2.8,11.2-7.4,13s-26,0.9-41.8-1.9c-4.6-0.8-5.9-2.7-5.4-5.1C1045.9,267.7,1047.5,268.9,1050.8,269.5z"/>
<path fill="none" stroke="#535461" stroke-width="2" stroke-miterlimit="10" d="M1352.8,284.1c0,0,13.2-44.9-2.5-77.9
	c-6.7-13.8-8.7-29.4-5.7-44.5c1.5-7.1,3.6-14.1,6.3-20.9"/>
<path fill="#F3992B" d="M1341.1,120c0,5.5,10,21.4,10,21.4s10-16,10-21.4c-0.5-5.5-5.4-9.5-10.9-9
	C1345.4,111.4,1341.6,115.2,1341.1,120L1341.1,120z"/>
<path fill="#F3992B" d="M1324.6,150.4c3,4.6,20,12.6,20,12.6s-0.3-18.8-3.3-23.4c-3.4-4.3-9.7-5.1-14-1.7
	C1323.5,140.9,1322.4,146.2,1324.6,150.4L1324.6,150.4z"/>
<path fill="#F3992B" d="M1325.3,202.5c4.9,2.5,23.6,0.8,23.6,0.8s-9.8-16.1-14.7-18.5c-4.7-2.9-10.9-1.4-13.8,3.3
	c-2.9,4.7-1.4,10.9,3.3,13.8C1324.3,202,1324.8,202.3,1325.3,202.5L1325.3,202.5z"/>
<path fill="#F3992B" d="M1334.7,241.8c4.4,3.3,23.2,4.8,23.2,4.8s-6.9-17.5-11.3-20.8c-4.7-2.8-10.9-1.3-13.7,3.4
	C1330.4,233.3,1331.2,238.5,1334.7,241.8L1334.7,241.8z"/>
<path fill="#F3992B" d="M1365.5,164.1c-3.9,3.8-22.3,7.8-22.3,7.8s4.5-18.3,8.4-22.1c4.3-3.5,10.6-2.8,14.1,1.5
	C1368.7,155.1,1368.6,160.5,1365.5,164.1z"/>
<path fill="#F3992B" d="M1375.9,210.2c-4.9,2.5-23.6,0.8-23.6,0.8s9.8-16.1,14.7-18.5c4.7-2.9,10.9-1.4,13.8,3.3
	c2.9,4.7,1.4,10.9-3.3,13.8C1377,209.7,1376.5,209.9,1375.9,210.2L1375.9,210.2z"/>
<path fill="#F3992B" d="M1379.9,256.3c-4.4,3.3-23.2,4.8-23.2,4.8s6.9-17.5,11.3-20.8c4.7-2.8,10.9-1.3,13.7,3.4
	C1384.3,247.8,1383.5,253.1,1379.9,256.3L1379.9,256.3z"/>
<path fill="#A8A8A8" d="M1381.5,279.7c0,0-24.2-4.8-30.6-11.3s-35.4-17.7-38.6-9.7c-3.2,8.1-43.5,35.4-16.1,40.3s64.4,6.4,72.4,3.2
	S1381.5,279.7,1381.5,279.7z"/>
<path opacity="0.2" enable-background="new    " d="M1296.2,296c27.4,4.8,64.4,6.4,72.4,3.2c6.1-2.5,10.4-14.2,12.1-19.7l0.8,0.2
	c0,0-4.8,19.3-12.9,22.5s-45.1,1.6-72.4-3.2c-7.9-1.4-10.2-4.7-9.3-8.8C1287.5,292.9,1290.3,295,1296.2,296z"/>
</svg>
