<?xml version="1.0" encoding="utf-8"?>
<!-- Generator: Adobe Illustrator 18.1.1, SVG Export Plug-In . SVG Version: 6.00 Build 0)  -->
<svg version="1.1" id="_x31_1567813-e781-4e7f-9d62-924af5cdcf5c"
	 xmlns="http://www.w3.org/2000/svg" xmlns:xlink="http://www.w3.org/1999/xlink" x="0px" y="0px" viewBox="388 -338.3 883.3 785.3"
	 enable-background="new 388 -338.3 883.3 785.3" xml:space="preserve">
<title>tasting</title>
<ellipse fill="#F5F5F5" cx="816.1" cy="324.7" rx="428.1" ry="122.3"/>
<path fill="#F3992B" d="M1048.2,54.5c0,0-53,37.5-39,109s-74.4,171.3-74.4,171.3s0.8,0,2.2,0c95.7-0.5,160.1-98.8,122-186.6
	C1044.8,115.5,1035,78.4,1048.2,54.5z"/>
<path fill="none" stroke="#535461" stroke-miterlimit="10" d="M1048.2,54.5c0,0-35,51.1-17.3,100.7s-25.2,173-96.1,179.6"/>
<path fill="#FFB15C" d="M1097.4,251.4c0,0-50.2-17.1-62.8,28.4c-12.6,45.5-108.3,35.6-108.3,35.6s0.5,0.5,1.6,1.5
	c69.3,64.6,147.1,58.8,147.5-11.2C1075.5,279.7,1080.2,254.4,1097.4,251.4z"/>
<path fill="none" stroke="#535461" stroke-miterlimit="10" d="M1097.4,251.4c0,0-41.6,1.9-44.5,38.9s-73.2,69.9-126.6,25.1"/>
<linearGradient id="SVGID_1_" gradientUnits="userSpaceOnUse" x1="974.3226" y1="-329.9332" x2="974.3226" y2="151.2501" gradientTransform="matrix(1 0 0 -1 -158.33 52.05)">
	<stop  offset="0" style="stop-color:#808080;stop-opacity:0.25"/>
	<stop  offset="0.54" style="stop-color:#808080;stop-opacity:0.12"/>
	<stop  offset="1" style="stop-color:#808080;stop-opacity:0.1"/>
</linearGradient>
<path fill="url(#SVGID_1_)" d="M1009.3,147.6c3-15,2.3-36.8-22.2-47.5c13.1-21.1,7-36-4.9-41.3c-0.1-5.5-1.5-16.7-11.2-22.6
	c1.3-10.4,3.4-51.6-43.3-56.3c-5.5-9.4-22.6-35-50.5-42.1v-37c-6.7,14.1-49,22.2-49,22.2c-48.5,6.8-59.3,34.1-61.8,46.1
	c-6.2,0.2-11.7,1-14.8,2.9c-10.2,6.4-82.7,25.3-77,75.5c-1,0.3-1.9,0.7-2.9,1c0,0-39.7,31.6-29,56.8l-4,0.3c0,0-23,14.2-15.9,42.2
	c-1.9,2.1-2.7,5-2,7.7l54.7,182.3c0.4,1.3,1.1,2.4,2.2,3.2c2.5,1.7,7.6,5.2,15.1,9.3l0.1,0.3l0.3-0.1c8.5,4.7,17.3,8.9,26.3,12.5
	v0.2l0.3-0.1c6.3,2.6,13.3,5.1,20.8,7.4v0.2h0.3c7,2.1,14.4,4.1,22.2,5.8v0.1h0.3c7.4,1.5,15.1,2.8,23.2,3.8l0,0h0.3
	c10,1.1,20,1.6,30,1.5l0,0h0.7l0,0c9.4-0.1,18.8-0.8,28.1-2h0.3v-0.1c7.5-1,15.2-2.3,23.1-4.1l-0.1,0.8l0.7,0.1l0.1-1
	c7.8-1.8,15.8-4,24-6.7h0.3v-0.2c6.8-2.2,13.6-4.8,20.6-7.7l0.3,0.1v-0.2c8.1-3.4,16.2-7.3,24.5-11.7l0.3,0.1l0.1-0.3
	c4.7-2.5,9.4-5.2,14.1-8c1.3-0.8,2.2-2,2.6-3.4l54.5-182.4C1011.9,152.5,1011.1,149.6,1009.3,147.6L1009.3,147.6z"/>
<path fill="#F3992B" d="M925.5-10.8c0,0-24.6-50.5-71.2-45.3s3.2,53.1,3.2,53.1S914.5,1.5,925.5-10.8z"/>
<path fill="#F3992B" d="M767.5-19.3c0,0,0-0.7,0.1-1.8c0.8-8.1,7.5-40.7,60.1-48c0,0,40.8-7.8,47.3-21.4V-49c0,0-8.4,29.1-50.5,38.9
	S767.5-19.3,767.5-19.3z"/>
<path fill="#784F69" d="M645.1,107c0,0-30.5,18.8-9.1,55.7c21.4,36.9,361.3,0,361.3,0s22-45.3-17.5-61.5S645.1,107,645.1,107z"/>
<path fill="#F3992B" d="M905.4,114.1c0,0,26.5,39.5,61.5,4.5s20.1-58.3,0-58.9S905.4,114.1,905.4,114.1z"/>
<path fill="#F3992B" d="M976,64.9c0,0,6.5-55-77-13s-62.2,64.1-62.2,64.1s41.4,31.7,75.1,5.8S966.3,88.2,976,64.9z"/>
<path fill="#F3992B" d="M911.9,48.1c0,0-31.7-22-80.3,0s-105.5,77.7-105.5,77.7s74.5,26.6,114.6-3.9S910,68.8,911.9,48.1z"/>
<path fill="#F3992B" d="M846.5,44.8c0,0-64.8-9.1-94.5,9.1s-90.3,66.4-90.3,66.4s18.4,35.3,72.1,8.1
	C733.8,128.4,845.2,59.1,846.5,44.8z"/>
<path fill="#F3992B" d="M676.9,52c0,0-57.6,46-12.3,69.9c0,0,95.8-62.8,97.8-69.9C762.3,52,717.7,36.4,676.9,52z"/>
<path fill="#F3992B" d="M802.5-21.8c0,0-38.2-6.5-48.6,0s-88,26.5-72.5,81.6l23.3-8.4C704.7,51.4,749.4-5,802.5-21.8z"/>
<path fill="#F3992B" d="M865.9-13.4c0,0-27.2-25.3-87.4-1.9S698.2,50,698.2,50l90.3,6.8C788.5,56.8,839.4-16,865.9-13.4z"/>
<path fill="#F3992B" d="M908-10.2c0,0-43.4-14.2-77,5.2s-46,57.6-46,57.6l53.7-2.6C838.7,50,880.8-16,908-10.2z"/>
<path fill="#F3992B" d="M965,42.3c0,0,14.9-75.8-83.5-52.4c0,0-55.9,49.2-40.3,62.8S965,42.3,965,42.3z"/>
<path opacity="0.1" enable-background="new    " d="M627.8,153.8l52.7,175.7c0.4,1.2,1.1,2.3,2.2,3c14.7,10.3,127.9,83.3,266.5,0
	c1.2-0.7,2.1-1.9,2.5-3.2l52.5-175.8c0.9-3-0.8-6.2-3.8-7.1c-1-0.3-2-0.3-3-0.1l-22.8,5.7c-0.8,0.2-1.6,0.2-2.4,0.1l-21.5-4
	c-1.3-0.2-2.6,0-3.7,0.6l-25.5,13.6c-1.2,0.7-2.7,0.8-4,0.5l-27.4-6.8c-1-0.3-2.1-0.2-3.1,0.1l-31.8,10.4c-1.4,0.5-3,0.3-4.3-0.3
	l-21.1-10.8c-1.3-0.7-2.9-0.8-4.3-0.4l-27.2,8.7c-0.7,0.2-1.4,0.3-2.1,0.3l-26.2-1.8c-0.4,0-0.8-0.1-1.2-0.2l-20.8-5.9
	c-0.9-0.2-1.8-0.3-2.7-0.1l-28.8,5.8c-1.1,0.2-2.2,0.1-3.2-0.3l-28-11.1c-1-0.4-2.1-0.5-3.1-0.3l-22.3,4c-0.9,0.2-1.8,0.1-2.7-0.2
	l-22.5-7.1c-3-0.9-6.2,0.8-7.1,3.8C627.5,151.6,627.5,152.7,627.8,153.8z"/>
<path fill="#4D4981" d="M627.8,155.1l52.7,175.7c0.4,1.2,1.1,2.3,2.2,3c14.7,10.3,127.9,83.3,266.5,0c1.2-0.7,2.1-1.9,2.5-3.2
	l52.5-175.8c0.9-3-0.8-6.2-3.8-7.1c-1-0.3-2-0.3-3-0.1l-22.8,5.7c-0.8,0.2-1.6,0.2-2.4,0.1l-21.5-4c-1.3-0.2-2.6,0-3.7,0.6
	l-25.5,13.6c-1.2,0.7-2.7,0.8-4,0.5l-27.4-6.8c-1-0.3-2.1-0.2-3.1,0.1l-31.8,10.4c-1.4,0.5-3,0.3-4.3-0.3l-21.1-10.8
	c-1.3-0.7-2.9-0.8-4.3-0.4l-27.2,8.7c-0.7,0.2-1.4,0.3-2.1,0.3l-26.2-1.8c-0.4,0-0.8-0.1-1.2-0.2l-20.8-5.9
	c-0.9-0.2-1.8-0.3-2.7-0.1l-28.8,5.9c-1.1,0.2-2.2,0.1-3.2-0.3l-28-11.1c-1-0.4-2.1-0.5-3.1-0.3l-22.3,4c-0.9,0.2-1.8,0.1-2.7-0.2
	l-22.5-7.1c-3-0.9-6.2,0.8-7.1,3.8C627.5,152.9,627.5,154,627.8,155.1z"/>
<polygon opacity="0.5" fill="#FFFFFF" enable-background="new    " points="685.6,92.5 680.1,90.6 677,85.6 690.8,68.4 696.3,70.3 
	699.4,75.3 "/>
<polygon opacity="0.5" fill="#FFFFFF" enable-background="new    " points="946.5,121.6 941,119.7 938,114.8 951.7,97.6 957.2,99.5 
	960.3,104.4 "/>
<polygon opacity="0.5" fill="#FFFFFF" enable-background="new    " points="832,27.7 826.4,25.8 823.3,20.9 837.1,3.7 842.6,5.6 
	845.7,10.5 "/>
<polygon opacity="0.5" fill="#FFFFFF" enable-background="new    " points="862.9,91 857.5,93.4 851.9,91.9 850.2,69.9 855.5,67.5 
	861.2,69 "/>
<polygon opacity="0.5" fill="#FFFFFF" enable-background="new    " points="773.1,37.1 769.4,41.6 763.7,42.9 752.2,24.1 
	755.9,19.5 761.6,18.3 "/>
<polygon opacity="0.5" fill="#FFFFFF" enable-background="new    " points="766.6,90.2 762.9,94.7 757.2,95.9 745.7,77.2 
	749.4,72.6 755.1,71.4 "/>
<polygon opacity="0.5" fill="#FFFFFF" enable-background="new    " points="925,95.4 920.7,99.4 914.9,99.9 905.9,79.8 910.2,75.7 
	916,75.3 "/>
<polygon opacity="0.5" fill="#FFFFFF" enable-background="new    " points="896.1,26.5 897.5,20.8 902.2,17.3 920.5,29.5 
	919.1,35.2 914.5,38.7 "/>
<polygon opacity="0.5" fill="#FD6F8D" enable-background="new    " points="701.2,34.9 695.7,32.9 692.6,28 706.3,10.8 711.8,12.7 
	714.9,17.7 "/>
<polygon opacity="0.5" fill="#FD6F8D" enable-background="new    " points="770.5,2.5 769.2,-3.1 771.7,-8.4 793.6,-6.1 795,-0.4 
	792.4,4.9 "/>
<polygon opacity="0.5" fill="#FD6F8D" enable-background="new    " points="876.6,-29.8 877.7,-35.5 882.2,-39.3 901.2,-28.2 
	900.1,-22.5 895.6,-18.7 "/>
<polygon opacity="0.5" fill="#FD6F8D" enable-background="new    " points="834.2,-58.7 839.9,-60 845.1,-57.4 842.6,-35.5 
	836.9,-34.2 831.7,-36.8 "/>
<polygon opacity="0.5" fill="#FD6F8D" enable-background="new    " points="795.2,113.9 793.8,108.2 796.3,102.9 818.2,105.3 
	819.5,111 817,116.2 "/>
<polygon opacity="0.5" fill="#FD6F8D" enable-background="new    " points="714.2,118 710.8,113.3 711,107.5 732.1,101.1 
	735.5,105.8 735.3,111.7 "/>
<polygon opacity="0.5" fill="#FD6F8D" enable-background="new    " points="940.8,79 936,75.7 934.4,70.1 952.3,57.3 957,60.6 
	958.7,66.2 "/>
<polygon opacity="0.5" fill="#FD6F8D" enable-background="new    " points="789.3,83.6 784.5,80.2 782.9,74.6 800.7,61.8 
	805.5,65.1 807.2,70.7 "/>
<path opacity="0.1" enable-background="new    " d="M682.4,150l-22.3,4c-0.9,0.2-1.8,0.1-2.7-0.2l-0.4-0.1l40.6,188l-40.6-188
	l-22.1-6.9c-3-0.9-6.2,0.7-7.1,3.7c-0.3,1.1-0.3,2.2,0,3.3l52.7,175.7c0.4,1.2,1.1,2.3,2.2,3c4.6,3.2,18.9,12.6,40.6,21.4l-39.3-204
	C683.5,149.8,682.9,149.9,682.4,150z"/>
<path opacity="0.1" enable-background="new    " d="M997.4,146.4l-22.8,5.7c-0.8,0.2-1.6,0.2-2.4,0.1l-21.5-4c-0.7-0.1-1.3-0.1-2,0
	l-37.5,203.7l37.5-203.7c-0.6,0.1-1.2,0.3-1.7,0.6l-25.5,13.6c-1.2,0.6-2.5,0.8-3.8,0.5l-26.7,196.6c15.2-5.1,30-11.4,44.2-19
	l40.9-188.8l-40.9,188.7c4.6-2.5,9.3-5.1,14-7.9c1.2-0.7,2.1-1.9,2.5-3.2l52.5-175.8c0.8-3-0.9-6.1-3.9-7
	C999.4,146.1,998.4,146.1,997.4,146.4z"/>
<path fill="#4D4981" d="M917.5,162.8l-27.4-6.8c-0.5-0.1-1.1-0.2-1.6-0.2l-20.9,210.1c7.7-1.7,15.5-3.9,23.4-6.5l26.7-196.6
	L917.5,162.8z"/>
<g opacity="0.5">
	
		<rect x="677" y="152.8" transform="matrix(-0.9775 0.211 -0.211 -0.9775 1391.9391 349.4464)" fill="#FFFFFF" width="0.6" height="192.3"/>
	
		<rect x="729.1" y="162.3" transform="matrix(-0.9898 0.1425 -0.1425 -0.9898 1488.85 419.1108)" fill="#FFFFFF" width="0.6" height="201.2"/>
	
		<rect x="703.3" y="149.2" transform="matrix(-0.982 0.1891 -0.1891 -0.982 1442.403 368.6967)" fill="#FFFFFF" width="0.6" height="208"/>
	
		<rect x="755.8" y="156.4" transform="matrix(-0.9961 8.802513e-002 -8.802513e-002 -0.9961 1532.4103 457.3419)" fill="#FFFFFF" width="0.7" height="212"/>
	
		<rect x="784.8" y="164.2" transform="matrix(-0.9996 2.931738e-002 -2.931738e-002 -0.9996 1577.6827 512.8594)" fill="#FFFFFF" width="0.7" height="207.6"/>
	<rect x="816.3" y="159.3" fill="#FFFFFF" width="0.7" height="213.9"/>
	
		<rect x="747.4" y="269.6" transform="matrix(-4.100369e-002 0.9992 -0.9992 -4.100369e-002 1153.3488 -567.1772)" fill="#FFFFFF" width="203" height="0.7"/>
	
		<rect x="771.9" y="262.1" transform="matrix(-9.966706e-002 0.995 -0.995 -9.966706e-002 1226.6873 -585.0718)" fill="#FFFFFF" width="212.3" height="0.7"/>
	
		<rect x="800.8" y="258.6" transform="matrix(-0.1302 0.9915 -0.9915 -0.1302 1274.6824 -600.4221)" fill="#FFFFFF" width="199.9" height="0.6"/>
	
		<rect x="826.2" y="250.7" transform="matrix(-0.1814 0.9834 -0.9834 -0.1814 1345.521 -617.9856)" fill="#FFFFFF" width="207.5" height="0.7"/>
	
		<rect x="859.1" y="247" transform="matrix(-0.2112 0.9775 -0.9775 -0.2112 1399.2194 -634.5717)" fill="#FFFFFF" width="193.1" height="0.7"/>
</g>
<linearGradient id="SVGID_2_" gradientUnits="userSpaceOnUse" x1="1829.5751" y1="-371.25" x2="1829.5751" y2="317.29" gradientTransform="matrix(-1 0 0 -1 2431.6699 52.05)">
	<stop  offset="0" style="stop-color:#808080;stop-opacity:0.25"/>
	<stop  offset="0.54" style="stop-color:#808080;stop-opacity:0.12"/>
	<stop  offset="1" style="stop-color:#808080;stop-opacity:0.1"/>
</linearGradient>
<path fill="url(#SVGID_2_)" d="M437.6,301.4c6-2,15-4.3,22.1-3.5c6.7-2.5,22.6-8.9,33.4-18.4c-0.3-9.4-0.1-18.8,0.7-28.2
	c5.5-63-6.9-104.5-6.9-104.5s-9.8-31.7-8.7-58c-0.6,1.2-1,1.9-1,1.9c-0.9-22.7-8.6-46.1-14.4-60.7c-0.2-0.1-0.4-0.1-0.6-0.2
	l-6.6-15.3c-0.5-0.9-0.9-1.8-1.2-2.8l-1-2.4l0.3-0.1c-0.1-0.4-0.2-0.8-0.3-1.3l0,0c-4.1-17.5-7.3-58.9-7.3-58.9
	c-11.1-43.6,15.2-70.6,15.2-70.6l44.6-38.4c-0.2,0.5-0.4,1-0.4,1.6l0.4-0.3c0.6-1.8,1.3-4,2-6.4c-1.6-1.1-3.1-2.4-4.5-3.8
	c-5.1-4.8-8.6-11-10-17.9c-1.1-5.3-0.9-10.8-0.7-16.2l0.7-18.5c0-3.6,0.4-7.2,1.1-10.8c3.4-14.7,18.4-25,33.5-25.6
	c4.8-0.2,9.6,0.4,14.4,0.8c3.9,0.3,7.8,0.4,11.7,0.3c0.4,0,0.9-0.1,1.3-0.3c0.3-0.3,0.5-0.8,0.5-1.3c0.2-1.7-0.4-3.5-1.6-4.8
	c-0.6-0.5-1.3-0.9-2-1.2l1.1,0.3c-0.5-0.4-1.1-0.7-1.8-1c3.9,0.9,7.8,1.9,11.1,4c1,0.6,1.8,1.4,2.6,2.2c2.1,1.8,3.4,4.3,3.8,7
	c1.7-1.7,3.4-3.5,4-5.9c0.2-0.9,0.2-1.9,0-2.8c0.3,0.3,0.5,0.7,0.8,1c0-0.1,0-0.2-0.1-0.3c2.8,3.5,4.8,7.6,5.8,12
	c0.8-1,1.2-2.2,1-3.4c0.2,0.7,0.4,1.4,0.6,2.1c0.1-0.5,0.1-0.9,0.1-1.4c1.7,5.3,2.5,10.9,2.3,16.4c0,5.6-2.5,14.2-8.4,16.2
	c-0.3,0.1-0.6,0.2-0.9,0.3c11.2,17.3,6.2,40.5-11.2,51.6c-4.3,2.7-9,4.6-14,5.4c-0.1,0.7-0.2,1.4-0.3,2.1h-0.2
	c-0.2,1.5-0.3,3.1-0.4,4.7c1.5,1.5,3.1,2.8,4.9,3.9c5,3,10.5,4.8,16.3,5.5c6.9,0.5,13.6,2.5,19.6,5.8c7.1,4,15,9.8,17.5,16.8
	c4.1,11.8,26.8,30,42,32.3L654-90l0.4-0.1v0.1l1.3-0.1h0.1l0,0h0.4v0.1l1.4-0.1c0,0,0.1,0.6,0.3,1.8c7.6-2.6,23.9-9.9,45-29.1
	c23.5-21.4,55.3-17.2,67.6-14.5c1.1,0.3,1.8,1.4,1.6,2.5c-0.1,0.6-0.5,1.1-1,1.4c-4.9,2.7-12.6,6.7-16.2,7.1c0,0,7.4,7.7-0.5,11.8
	c-1.9,0.9-4.2,0.7-5.9-0.6c-3.8-2.8-14.3,3.5-29.6,6.8c0,0-43.1,44.6-64.5,51.5c-0.5,1-1.1,1.9-1.7,2.8l-1.3-0.1l-0.1,0.1h-0.2
	l-0.2,1.4c0,0-33.3-1.8-44-13.8c-0.8-0.7-1.5-1.4-2.1-2.3l11.6,145.5h-0.1l0.1,1.4h-8.5c-0.7,17.9,0,35.8,2.3,53.6V232
	c0,0,0.4,8.3-16.9,20.5c-18.2,12.6-35.8,26.2-52.6,40.7l-2.1,1.8c3.2,29,9.9,83.1,15.4,85.1l-3.4,0.6c5.9,7.5,22.6,27.9,27.7,28.5
	c6.2,0.7,10.4,10.4,0,12.5c-9.6,1.9-34.5,4.4-61.7-6.1c-4-1.6-6.5-5.7-5.9-10l2-15.3c-0.4,0.2-0.7,0.5-0.9,0.9c-1.4,4.2,0-5.5,0-5.5
	c-5.7-18.3-10.2-37-13.4-55.8l-20.5,17.8c0,0-0.4-0.5-1.1-1.4c-5,11.4-14,34.8-12,52c2.8,23.5-23.5,2.8-20.8-11.1
	c2.2-11.2-7.8-58.6-11.6-76.3C431.4,306.7,433.7,302.7,437.6,301.4z"/>
<path fill="#FEC3BE" d="M652.5-82.4c0,0,19.6-3.4,48.6-29.7c23-20.9,54-16.7,66-14.1c1.1,0.2,1.8,1.2,1.7,2.3
	c-0.1,0.7-0.5,1.2-1.1,1.5c-4.8,2.6-12.3,6.5-15.8,7c0,0,7.2,7.5-0.5,11.5c-1.9,0.9-4.1,0.7-5.8-0.6c-3.7-2.7-14,3.4-28.9,6.6
	c0,0-58.1,60.1-71.6,50L652.5-82.4z"/>
<path fill="#FEC3BE" d="M552.5-164.2c0,0-5.4,23,0,39.2l-24.3,3.4l-21.6-10.8v-14.2c0,0,10.1-21.6,7.4-46.6L552.5-164.2z"/>
<path fill="#8B416F" d="M483.5,333.8c0,0-17.6,34.5-14.9,57.4c2.7,23-23,2.7-20.3-10.8c2.2-10.9-7.6-57.3-11.4-74.5
	c-0.9-3.9,1.3-7.8,5.1-9c8.1-2.7,21.7-6,28.6-0.9C480.8,303.4,483.5,333.8,483.5,333.8z"/>
<path fill="#8B416F" d="M550.4,371.6c0,0,23,29.7,29.1,30.4s10.1,10.1,0,12.2c-9.3,1.9-33.7,4.3-60.2-5.9c-4-1.5-6.3-5.6-5.8-9.8
	l3.8-28.9L550.4,371.6z"/>
<path fill="#4D4981" d="M588.3,56.1l22,2.9c0,0-5.1,36.9,0.3,77.5v92.6c0,0,0.4,8.2-16.5,20c-17.7,12.4-34.8,25.6-51.2,39.7
	l-61.3,53.1c0,0-24.3-29.7-21-47.3c0,0,40.5-12.8,46-33.8c3.1-12,18.8-22,31.7-28.3c16.6-8.2,25.6-26.8,21.1-44.7
	c-0.8-3-1.9-6-3.5-8.7c-10.8-18.9-26.3-61.5-26.3-61.5l29.7-56.8L588.3,56.1z"/>
<path opacity="5.000000e-002" enable-background="new    " d="M588.3,56.1l22,2.9c0,0-5.1,36.9,0.3,77.5v92.6c0,0,0.4,8.2-16.5,20
	c-17.7,12.4-34.8,25.6-51.2,39.7l-61.3,53.1c0,0-24.3-29.7-21-47.3c0,0,40.5-12.8,46-33.8c3.1-12,18.8-22,31.7-28.3
	c16.6-8.2,25.6-26.8,21.1-44.7c-0.8-3-1.9-6-3.5-8.7c-10.8-18.9-26.3-61.5-26.3-61.5l29.7-56.8L588.3,56.1z"/>
<path fill="#4D4981" d="M555.8,373.6c0,0-39.9,6.8-41.2,10.8c-1.3,4,0-5.4,0-5.4s-23-69.6-17.6-131.1s-6.8-102-6.8-102
	s-14.2-46-6.1-72.3s93.2-14.9,93.2-14.9s-29.7,69.6-29,102.7c0,0-3.4,100-9.5,111.5C538.9,273,548.4,370.9,555.8,373.6z"/>
<path fill="#FFFFFF" d="M551.1-146.6c0,0-4,25-44.6,14.2l27,205.4c0,0,78.4,2.7,77.7-6.8L595-58.1L551.1-146.6z"/>
<path opacity="0.1" enable-background="new    " d="M550.1-148c0,0,7.7,8.2,19.5,9.3c6.7,0.5,13.3,2.5,19.2,5.7
	c7,3.9,14.6,9.5,17,16.5c4.7,13.5,34.5,35.8,48,31.1l-4.7,40.5c0,0-38.5-2-45.3-16.9l11.5,144.6h-10.1c0,0-5.4-39.2-9.5-47.3
	S583.5-17.2,582.9-28s-10.8-73-19.6-83.8l-13.2-32.1L550.1-148z"/>
<path opacity="0.1" enable-background="new    " d="M550.1-146c0,0,9,7.6,20.9,8.6c6.7,0.5,13.3,2.5,19.2,5.7
	c7,3.9,14.6,9.5,17,16.5c4.7,13.5,34.5,35.8,48,31.1l-4.7,40.5c0,0-38.5-2-45.3-16.9l11.5,144.6h-10.2c0,0-5.4-39.2-9.5-47.3
	s-12.2-52.7-12.8-63.5s-10.8-73-19.6-83.8l-14.5-31.4L550.1-146z"/>
<path fill="#FD6F8D" d="M550.1-147.3c0,0,9,7.6,20.9,8.6c6.7,0.5,13.3,2.5,19.2,5.7c7,3.9,14.6,9.5,17,16.5
	c4.7,13.5,34.5,35.8,48,31.1l-4.7,40.5c0,0-38.5-2-45.3-16.9l11.5,144.6h-10.2c0,0-5.4-39.2-9.5-47.3s-12.2-52.7-12.8-63.5
	s-10.8-73-19.6-83.8l-14.5-31.4L550.1-147.3z"/>
<path opacity="0.1" enable-background="new    " d="M515.7-173.3c0.9-6.4-0.9-10.4-1.7-17.9l38.5,29.1c0,0-0.9,3.9-1.6,9.7
	c-1.9,0.3-3.9,0.5-5.8,0.5C531.6-152,522-162.5,515.7-173.3z"/>
<circle fill="#FEC3BE" cx="545" cy="-190.6" r="36.5"/>
<path opacity="0.1" enable-background="new    " d="M584.8-226.3c0.2-6.2-0.8-12.3-3-18.1c1.2,1.9,0.9,4.3-0.8,5.8
	c-1.2-6.3-4.4-12-9.2-16.2c2.6,0.4,3.9,3.6,3.3,6.2c-0.6,2.6-2.6,4.5-4.5,6.4c0.2-3.9-2.3-7.5-5.6-9.6c-3.2-2.1-7.1-3-10.9-3.9
	c2.7,1,4.4,3.6,4.2,6.5c0,0.5-0.2,0.9-0.5,1.3c-0.4,0.2-0.8,0.4-1.2,0.3c-3.8,0.2-7.6,0.1-11.4-0.2c-4.7-0.5-9.4-0.8-14.1-0.8
	c-14.8,0.6-29.5,10.6-32.8,25c-0.7,3.5-1,7-1.1,10.5l-0.7,18.1c-0.2,5.3-0.4,10.6,0.6,15.8c2.1,9.8,8.4,18.1,17.2,22.7
	c5.3-7.7,5.8-17.6,7.6-26.7c0.3-2.1,1.1-4.1,2.3-5.9c1.3-1.7,3.7-2.7,5.7-1.9s2.8,3.8,1.2,5.2c1.4,1.7,4.2,0.4,5.8-1.1
	c4.6-4.4,7.8-10.1,9.2-16.4c0.7-3.1,1.3-7,4.4-8.1c1.1-0.3,2.2-0.4,3.3-0.2c6.4,0.4,16.5,3.1,22.7,1.1
	C582.4-212.4,584.8-220.9,584.8-226.3z"/>
<path fill="#FAD375" d="M584.2-227c0.2-6.2-0.8-12.3-3-18.1c1.2,1.9,0.9,4.3-0.8,5.8c-1.2-6.3-4.4-12-9.2-16.2
	c2.6,0.4,3.9,3.6,3.3,6.2c-0.6,2.6-2.6,4.5-4.5,6.4c0.2-3.9-2.3-7.5-5.6-9.6c-3.2-2.1-7.1-3-10.9-3.9c2.7,1,4.4,3.6,4.2,6.5
	c0,0.5-0.2,0.9-0.5,1.3c-0.4,0.2-0.8,0.4-1.2,0.3c-3.8,0.2-7.6,0.1-11.4-0.2c-4.7-0.5-9.4-0.8-14.1-0.8c-14.8,0.6-29.5,10.6-32.8,25
	c-0.7,3.5-1,7-1.1,10.6l-0.7,18.1c-0.2,5.3-0.4,10.6,0.6,15.8c2.1,9.8,8.4,18.1,17.2,22.7c5.3-7.7,5.8-17.5,7.6-26.7
	c0.3-2.1,1.1-4.1,2.3-5.9c1.3-1.7,3.7-2.7,5.6-1.9s2.8,3.8,1.2,5.2c1.4,1.7,4.2,0.4,5.9-1.1c4.6-4.4,7.8-10.1,9.2-16.4
	c0.7-3.1,1.3-7,4.4-8.1c1.1-0.3,2.2-0.4,3.3-0.2c6.4,0.4,16.5,3.1,22.7,1.1C581.8-213.1,584.2-221.6,584.2-227z"/>
<path opacity="0.1" enable-background="new    " d="M656.8-85.5c0,0,5.4,25-4.7,40.5l-5.7-0.5l3.1-39.6L656.8-85.5z"/>
<path fill="#FD6F8D" d="M655.5-85.5c0,0,5.4,25-4.7,40.5l-5.7-0.5l3.1-39.6L655.5-85.5z"/>
<path opacity="0.1" enable-background="new    " d="M510.2-153.7l-43.5,37.5c0,0-25.7,26.4-14.9,68.9c0,0,4.7,62.2,10.1,64.9
	c0,0,18.9,37.8,20.3,73.6c0,0,25.3-51,36.8-19.9s38.2,35.5,38.2,35.5L542.3-77C542.3-77,504.8-142.3,510.2-153.7z"/>
<path fill="#FD6F8D" d="M508.9-153.7l-43.6,37.5c0,0-25.7,26.4-14.9,68.9c0,0,4.7,62.2,10.1,64.9c0,0,18.9,37.8,20.3,73.6
	c0,0,26.7-53.7,38.2-22.6c11.5,31.1,36.8,38.2,36.8,38.2L541-77C541-77,503.5-142.3,508.9-153.7z"/>
<path fill="#FEC3BE" d="M488.9,4.7c0,0-10.8-7.4-28.4,12.8l43.2,78.4l14.5-22C518.3,73.9,487.6,13.5,488.9,4.7z"/>
<path opacity="0.1" enable-background="new    " d="M499.4,9.1c0,0-23.9,26.9-33.2,22.5l-8.6-20.1l32.4-13.9L499.4,9.1z"/>
<path fill="#FD6F8D" d="M499.4,7.8c0,0-23.9,26.9-33.2,22.6l-8.6-20.1L490-3.7L499.4,7.8z"/>
<path opacity="0.1" enable-background="new    " d="M516.9,68.9c0,0-11.4,23.3-17.5,24.7l8.8,10.1L521,79.4L516.9,68.9z"/>
<path fill="#4D4981" d="M517.5,69.6c0,0-11.4,23.3-17.5,24.7l8.8,10.1l12.8-24.3L517.5,69.6z"/>
<path opacity="0.1" enable-background="new    " d="M496-74.6c0,0-1.3,48.6,4,66.9"/>
<path opacity="0.1" enable-background="new    " d="M605.5-65.2c0,0-8.1-2.7-8.1-9.5"/>
<g opacity="0.5">
	
		<linearGradient id="SVGID_3_" gradientUnits="userSpaceOnUse" x1="1996.2081" y1="66.9839" x2="2210.3533" y2="66.9839" gradientTransform="matrix(-1 0 0 -1 3267.6699 52.05)">
		<stop  offset="0" style="stop-color:#808080;stop-opacity:0.25"/>
		<stop  offset="0.54" style="stop-color:#808080;stop-opacity:0.12"/>
		<stop  offset="1" style="stop-color:#808080;stop-opacity:0.1"/>
	</linearGradient>
	<path fill="url(#SVGID_3_)" d="M1057.3-64c-0.1,6.4,0.7,12.3,2.8,16.9l2,29c0,0,0.5-0.3,1.4-0.7c-1.2,11-0.3,31.1,21.3,34.9
		c0.5-0.1,0.9-0.4,1.3-0.7c1.5-3,2.8-6.1,4-9.2l0.3,0.1l-0.3,1.2l1.6,0.5c-7.8,16.9-6,52-4.3,55.4c0.7,1.4,1.3,5.7,1.7,10.5
		c0.8,9.3,0.4,18.7-1,28c-1,6.4-1.3,14.2,2,17.5c6,5.9,5.3,51.3,5.3,51.3c0.4,1,0.9,2,1.4,3l-2.1,0.3c0,0,0,17.8,3.3,30.3
		c1.9,7.2-0.8,16.6-3.5,23.2c-3.7,9-4.5,18.8-2.3,28.3c1.9,8.1,6,16.3,14.4,18.9c18.7,5.9,22.7-25,22.7-25s-0.7-23.7,0-27
		c0.2-1,1.2-3.8,2.4-7.3c4.5-12.5,6.2-25.8,5-39l-0.8-8.3l-3.6,0.5c-0.1-0.9-0.1-1.8-0.2-2.7c-0.1-0.9-0.1-1.6-0.1-2.5
		c0-0.8-0.1-1.7-0.1-2.6c0-0.9-0.1-1.8-0.1-2.7c0-0.5,0-0.9-0.1-1.4c-0.2-4.3-0.3-8.8-0.4-13.3c0-2-0.1-4-0.1-6c0-1.5,0-2.9-0.1-4.3
		c0-0.5,0-0.9,0-1.4c0-2.3-0.1-4.5-0.1-6.5c0-0.4,0-0.8,0-1.2c0-0.8,0-1.5,0-2.3c0-0.4,0-0.7,0-1.1c0-0.7,0-1.3,0-2s0-1.2,0-1.7
		s0-1,0-1.5c0-2.5,0.1-3.6,0.2-2.7c0.3,3,1.3,21.1,0-2c-1.1-18.6,15.7-62.9,22.2-79.3c2.1,1.1,4.1,2.3,6,3.6
		c2.2,25.9-0.8,75.4-1.8,90v0.1c-0.1,1.1-0.1,2-0.2,2.7v0.1l-0.1,0.7v0.2v0.2v0.1c0,0-8.7,54-8.7,66.5c0,9.6-4.8,23.6-6.9,29.4
		c-3.2,1.4-5.7,2.8-5.7,2.8l0.7,49.4c0,0-7.3,24.3,19.3,30.3s15.3-24.3,15.3-24.3l-2-21.7l9.3-33.6l-2.6-0.5
		c5.5-17.7,20.4-66.4,19.3-77.1c-1.2-12,4.8-25.1,5.8-27.3l0,0l0.2-0.3c-5.7-11.8,11.7-74,19.6-100.8c9.9-4.7,17.1-8.4,17.1-8.4
		s-0.2-0.4-0.5-1l0.5-0.3c-4.3-8-7.7-16.4-10.2-25.1l0.6-0.6l-0.4-1.2c1.4-1.3,2.1-2.1,2.1-2.1s19.3,3.3,14.7-5.9s-3.3-23-3.3-23
		v-50.6l9.3,3.1c17.6,2.9,20.7-16.7,20.6-31.7c0-5.9-0.4-11.8-1.3-17.6c0,0-13.3-102-36.7-98.7c-21.9,3.1-41.1-9.7-43.4-11.4
		c-0.3-0.9-0.5-1.7-0.8-2.6c1.3-1.5,2.5-3.1,3.5-4.8c0.7,0,1.5-0.1,2.2-0.2c0-0.2,0-0.4,0-0.6l0.7-0.1c-0.1-4.6,1.6-9.1,4.8-12.4
		c1.3-1.2,2.8-2.2,4.4-3c3.2-1.5,6.9-2,10-3.6c1.1-0.6,2.1-1.4,3-2.3c2-1.8,3.3-4.3,2.6-6.8c-0.3-1.1-1-2.1-1-3.3
		c0-1.6,1.3-2.9,2-4.3c2.2-4.1,0.2-9.3-2.5-13.1c-2.8-3.8-6.3-7.4-7.3-12c-0.4-1.9-0.4-3.9-1-5.7c-2-5.9-9.7-7.7-16-7.4
		c-6.3,0.3-13.1,1.7-18.6-1.4c-1-0.8-2.2-1.4-3.3-1.9c-1.4-0.3-2.8-0.3-4.2,0c-8,1.4-15.4,5.4-22,10c-2.7,1.8-5.2,3.8-7.5,6.1
		c-1.5,1.4-2.9,3-4,4.8c-2.7,4.2-4,9.5-2.3,14.2c1,2.6,2.6,4.8,4.8,6.5c-10.9,14.3-8.2,34.8,6.1,45.7c0.2,0.2,0.4,0.3,0.6,0.5
		c-1.1,1.8-2.4,3.5-3.8,5.1v-0.3c0,0-20.3,10.2-27.7,8.9c-7.2-1.3-25.8,10.6-25.4,34.5c0,0.6,0,1.2,0,1.8l-12,37.2
		c-4.8,14.9-7.3,30.6-7.3,46.3C1068.1-116.8,1057.1-86.9,1057.3-64z M1089.6-48.3l15.9-59.2v12.9l-10,35.5c0,0-2,11.9-3.5,24.5
		L1089.6-48.3z"/>
</g>
<path fill="#5A5773" d="M1136.8,159.7l0.7,8.1c1.2,12.9-0.5,25.9-4.8,38.2c-1.2,3.3-2.1,6.1-2.3,7.1c-0.6,3.2,0,26.4,0,26.4
	s-3.9,30.2-21.9,24.4c-8.1-2.6-12-10.5-13.9-18.5c-2.1-9.2-1.3-18.9,2.2-27.6c2.6-6.5,5.2-15.7,3.3-22.7
	c-3.2-12.2-3.2-29.6-3.2-29.6L1136.8,159.7z"/>
<path fill="#605D82" d="M1156.1,20.2c0,0-25.1,61.1-23.8,83.6c1.3,22.5,0.3,4.8,0,1.9c-0.6-5.1,0,56,1.9,63c0,0-26.4,19.3-36.7-6.4
	c0,0,0.6-44.4-5.1-50.2c-3.2-3.2-2.9-10.8-1.9-17.1c1.4-9,1.7-18.2,1-27.3c-0.4-4.7-0.9-8.8-1.6-10.3c-1.9-3.9-3.9-47.6,7.7-59.8
	L1156.1,20.2z"/>
<path opacity="0.1" enable-background="new    " d="M1131.1,168.7c-1.9-7.1-2.5-68.2-1.9-63c0.3,2.9,1.3,20.6,0-1.9
	c-1.3-22.5,23.8-83.6,23.8-83.6l-56.1-21.6c0.3-0.3,0.5-0.6,0.8-0.9l58.5,22.5c0,0-25.1,61.1-23.8,83.6c1.3,22.5,0.3,4.8,0,1.9
	c-0.6-5.1,0,56,1.9,63c0,0-10.5,7.7-20.9,6.9C1122.6,174.9,1131.1,168.7,1131.1,168.7z"/>
<path fill="#5A5773" d="M1178,218.2l-9,32.8l1.9,21.2c0,0,10.9,29.6-14.8,23.8s-18.7-29.6-18.7-29.6l-0.6-48.2
	c0,0,10.3-5.8,14.8-5.1S1178,218.2,1178,218.2z"/>
<path fill="#605D82" d="M1222.4,4.7c0,0-29.6,95.8-22.5,110.6c0,0-7.1,14.2-5.8,27s-20.6,81.7-20.6,81.7l-32.2-5.8
	c0,0,7.7-19.3,7.7-31.5s8.4-65,8.4-65s7.1-96.5-1.3-106.8L1222.4,4.7z"/>
<g opacity="0.1">
	<path d="M1158.6,22.8c5.3,21.8-0.6,102.2-0.6,102.2s-8.4,52.7-8.4,65c0,9.3-4.5,22.8-6.6,28.6l-1.7-0.3c0,0,7.7-19.3,7.7-31.5
		s8.4-65,8.4-65S1162.8,48.4,1158.6,22.8z"/>
	<path d="M1199.9,115.4l-0.2,0.3c-0.1-0.3-0.1-0.7-0.1-1C1199.7,114.9,1199.8,115.1,1199.9,115.4z"/>
	<path d="M1157.6,18.1c-0.3-1.1-0.8-2.2-1.4-3.1l66.2-10.3c0,0-0.4,1.3-1.1,3.5L1157.6,18.1z"/>
</g>
<path fill="#A1616A" d="M1068-30c0,0-9.7,36,19.3,41.2c0.5-0.1,0.9-0.3,1.3-0.6c0,0,16.7-32.8,3.9-45.7L1068-30z"/>
<path fill="#A1616A" d="M1186.4-269.3c0,0-1.9,27,19.3,39.9c21.2,12.9-45,48.2-45,48.2l-34.8-55.3c0,0,14.8,1.9,23.8-23.8
	L1186.4-269.3z"/>
<path opacity="0.1" enable-background="new    " d="M1200.5-227.4c0,0-32.8,68.2-62.4,3.9L1092.5,2.8c0,0,70.7,21.9,71.4,32.2
	s71.4-26.4,71.4-26.4s-15.4-28.3-11.6-45.7S1200.5-227.4,1200.5-227.4z"/>
<path fill="#E1E7EF" d="M1200.5-228.7c0,0-32.8,68.2-62.4,3.9L1092.5,1.5c0,0,70.7,21.9,71.4,32.1c0.7,10.3,71.4-26.4,71.4-26.4
	s-15.4-28.3-11.6-45.7S1200.5-228.7,1200.5-228.7z"/>
<path fill="#5A5773" d="M1168.3,236.2c0,0,8.4-18.7-10.9-18.7c-19.3,0-16.1,16.8-16.1,16.8L1168.3,236.2z"/>
<path fill="#5A5773" d="M1124.6,188c0,0,7.7-19.9-11.6-20.6c-19.3-0.6-9.7,18-9.7,18L1124.6,188z"/>
<path opacity="0.1" enable-background="new    " d="M1141-243.2c0,0-19.6,10-26.7,8.7c-7.1-1.3-25.7,10.9-24.4,35.4l-11.6,36.5
	c-4.6,14.6-7,29.9-7,45.2l0,0c0,0-16.7,46.3-7.7,66.9l1.9,28.3c0,0,14.8-8.4,30.2-5.8l-3.9-23.1l17.4-65.6l28.9-70.1L1141-243.2z"/>
<path fill="#67647E" d="M1141-244.5c0,0-19.6,10-26.7,8.7c-7.1-1.3-25.7,10.9-24.4,35.4l-11.6,36.5c-4.6,14.6-7,29.9-7,45.2l0,0
	c0,0-16.7,46.3-7.7,66.9l1.9,28.3c0,0,14.8-8.4,30.2-5.8l-3.9-23.1l17.4-65.6l28.9-70.1L1141-244.5z"/>
<path opacity="0.1" enable-background="new    " d="M1108.5-166.3v72.7l-9.7,34.7c0,0-6.4,37.9-4.5,49.5
	c1.9,11.6,32.8,14.1,41.2,4.5s3.9-92,3.9-92l1.6-120.6l-1.3-3.9L1108.5-166.3z"/>
<path fill="#67647E" d="M1107.3-169.6v72.7l-9.7,34.7c0,0-6.4,37.9-4.5,49.5c1.9,11.6,32.8,14.1,41.2,4.5s3.9-92,3.9-92l1.6-120.5
	L1107.3-169.6z"/>
<path opacity="0.1" enable-background="new    " d="M1236.8-109.1l-20.6,64l9.7,27.3c0,0-45.7,48.2-74.6,25.1
	c0,0-3.2-98.4,3.2-121.6s37.3-101,37.3-101l6.4-20.6l34.1,19.3L1236.8-109.1z"/>
<path fill="#67647E" d="M1238.5-112.3v63c0,0-1.3,13.5,3.2,22.5c4.5,9-14.2,5.8-14.2,5.8s-45.7,48.2-74.6,25.1
	c0,0-3.2-98.4,3.2-121.5s37.3-101,37.3-101l6.4-20.6l34.1,19.3L1238.5-112.3z"/>
<rect x="1159.7" y="-133.6" transform="matrix(0.5446 -0.8387 0.8387 0.5446 647.4149 932.2536)" fill="#E6E6E6" width="45" height="7"/>
<ellipse transform="matrix(-0.8412 -0.5408 0.5408 -0.8412 2201.5442 426.5172)" opacity="0.1" enable-background="new    " cx="1163.4" cy="-110" rx="8" ry="14.5"/>
<ellipse transform="matrix(-0.8387 -0.5446 0.5446 -0.8387 2203.6824 439.28)" fill="#E6E6E6" cx="1166.9" cy="-106.7" rx="8" ry="14.6"/>
<ellipse transform="matrix(-0.8387 -0.5446 0.5446 -0.8387 2203.6824 439.28)" opacity="0.1" enable-background="new    " cx="1166.9" cy="-106.7" rx="6.5" ry="11.8"/>
<path opacity="0.1" enable-background="new    " d="M1188.6-250.3c0,0,19.6,14.5,42.1,11.3s35.4,96.5,35.4,96.5s8.4,51.5-18.7,47
	l-59.8-19.9c0,0,12.9-13.5,10.9-30.9l28.9,11.6l-1.3-55.3L1188.6-250.3z"/>
<path opacity="0.1" enable-background="new    " d="M1264.8-143.8c0,0,8.4,51.5-18.7,47l-59.8-19.9c0,0,12.9-13.5,10.9-30.9
	l28.9,11.6L1264.8-143.8z"/>
<path fill="#A1616A" d="M1198.7-140.9c0,0-20-26.4-34.8-13.7c-14.8,12.7,29.6,35.9,29.6,35.9L1198.7-140.9z"/>
<path fill="#67647E" d="M1188.6-251.6c0,0,19.6,14.5,42.1,11.3s35.4,96.5,35.4,96.5s8.4,51.5-18.7,47l-59.8-19.9
	c0,0,12.9-13.5,10.9-30.9l28.9,11.6l-1.3-55.3l-32.8-27L1188.6-251.6z"/>
<path opacity="0.1" enable-background="new    " d="M1149.1-259l36.7-9c0,0-1.9,2.2,0.3,10.6c-5.9,6.8-13.2,15.8-22.8,15.8
	c-6.9,0-13.7-2.2-19.2-6.4C1146.1-251.4,1147.7-255.1,1149.1-259z"/>
<circle fill="#A1616A" cx="1163.8" cy="-275" r="32.2"/>
<path opacity="0.1" enable-background="new    " d="M1151.7-289c-7.5-1.3-15.7-4.6-18.2-11.7c-1.6-4.6-0.4-9.8,2.2-13.8
	c2.6-4.1,6.5-7.2,10.4-10c6.4-4.5,13.5-8.4,21.3-9.8c1.3-0.3,2.7-0.3,4.1,0c1.2,0.5,2.3,1.1,3.3,1.8c5.3,3,11.9,1.7,18,1.4
	s13.5,1.4,15.4,7.2c0.6,1.8,0.6,3.7,1,5.6c1,4.5,4.4,8,7,11.8s4.6,8.8,2.4,12.9c-0.8,1.4-2,2.6-2,4.2c0.2,1.1,0.5,2.2,1,3.2
	c0.9,3.3-1.7,6.7-4.8,8.3c-3.1,1.6-6.6,2.1-9.7,3.5c-6,2.9-9.7,9.1-9.5,15.7c-2.8,0.3-6.2,0.5-8.1-1.6c-0.9-0.9-1.3-2.2-2.1-3.2
	c-1-1.3-2.6-2.1-3.8-3.2c-6.7-5.5-1.9-13.2-5.8-19.1c-2-3.1-5.2-2.1-8.4-2.1C1160.9-287.9,1156.2-288.2,1151.7-289z"/>
<path fill="#4A4347" d="M1152.3-289.6c-7.5-1.3-15.7-4.6-18.2-11.7c-1.6-4.6-0.4-9.8,2.2-13.8c2.6-4.1,6.5-7.2,10.4-10
	c6.4-4.5,13.5-8.4,21.3-9.8c1.3-0.3,2.7-0.3,4.1,0c1.2,0.5,2.3,1.1,3.3,1.8c5.3,3,11.9,1.7,18,1.4c6.1-0.3,13.5,1.4,15.4,7.2
	c0.6,1.8,0.6,3.7,1,5.6c1,4.5,4.4,8,7,11.8s4.6,8.8,2.4,12.9c-0.8,1.4-2,2.6-2,4.2c0.2,1.1,0.5,2.2,1,3.2c0.9,3.3-1.7,6.7-4.8,8.3
	c-3.1,1.6-6.6,2.1-9.7,3.5c-6,2.9-9.7,9.1-9.5,15.7c-2.8,0.3-6.2,0.5-8.1-1.6c-0.9-0.9-1.3-2.2-2.1-3.2c-1-1.3-2.6-2.1-3.8-3.2
	c-6.7-5.5-1.9-13.2-5.8-19.1c-2-3.1-5.2-2.1-8.4-2.1C1161.5-288.6,1156.9-288.9,1152.3-289.6z"/>
<path opacity="0.1" enable-background="new    " d="M1113.4-181.5c0,0-7.1,36.7-3.9,50.8c2,8.2,1.7,16.8-0.8,24.9"/>
<path opacity="0.1" enable-background="new    " d="M1227.7-166c0,0,3.1,24.4-2.1,29.6"/>
<path d="M1048.1,135.2c0.8,0,1.5-0.7,1.5-1.5s-0.7-1.5-1.5-1.5c-0.8,0-1.5,0.7-1.5,1.5S1047.3,135.2,1048.1,135.2z"/>
<rect x="736.9" y="-122" transform="matrix(-0.9259 -0.3778 0.3778 -0.9259 1507.3463 58.7721)" fill="#E6E6E6" width="45" height="7"/>
<ellipse transform="matrix(-0.9259 -0.3778 0.3778 -0.9259 1551.8252 87.9651)" opacity="0.1" enable-background="new    " cx="784.5" cy="-108.2" rx="14.6" ry="8"/>
<ellipse transform="matrix(-0.9259 -0.3778 0.3778 -0.9259 1553.2267 88.8604)" fill="#E6E6E6" cx="785.3" cy="-107.9" rx="14.6" ry="8"/>
<ellipse transform="matrix(-0.9259 -0.3778 0.3778 -0.9259 1553.2267 88.8604)" opacity="0.1" enable-background="new    " cx="785.3" cy="-107.9" rx="11.8" ry="6.5"/>
</svg>
